<svg width="75" height="70" viewBox="0 0 75 70" fill="none" xmlns="http://www.w3.org/2000/svg">
<path d="M44.5958 0.554167C44.2167 0.845833 43.5167 1.89583 43.05 2.8875C42.1167 4.78333 42.0583 4.84167 39.5208 5.25C37.45 5.6 36.5458 6.15417 35.9917 7.49583C35.35 9.0125 35.7292 10.0917 37.5667 12.0167L39.1708 13.7083L38.7917 15.8375C38.4708 17.7333 38.5 18.1125 38.9083 18.9875C39.4625 20.1833 40.7167 21 41.9708 21C42.4667 21 43.7208 20.5917 44.7708 20.0667L46.6667 19.1333L48.5625 20.0667C50.8083 21.175 52.0917 21.2625 53.2292 20.3583C54.5417 19.3375 54.8333 18.2292 54.4833 15.8375L54.1625 13.7375L55.7958 11.9583C57.2542 10.4125 57.4583 10.0333 57.4583 9.0125C57.4583 6.53333 56.2917 5.5125 52.9958 5.10417L51.3333 4.92917L50.4292 3.15C49.175 0.670834 48.3583 0 46.6667 0C45.7625 0 45.0625 0.174999 44.5958 0.554167ZM48.3 4.17083C49.5833 6.62083 50.05 6.97083 52.3833 7.35C55.65 7.875 55.8833 8.45833 53.6958 10.675C51.975 12.425 51.7417 13.1833 52.0917 15.8083C52.5292 18.9292 52.1208 19.2208 49.2917 17.7917C47.1042 16.6833 46.2583 16.6833 43.8958 17.85C42.3792 18.6083 41.8833 18.725 41.475 18.4917C40.95 18.1417 40.9208 17.8208 41.2708 14.8458L41.5042 12.8917L39.6958 10.9667C38.7333 9.91667 37.9167 8.925 37.9167 8.77917C37.9167 8.1375 38.8792 7.64167 40.4833 7.4375C42.9333 7.14583 43.8667 6.475 44.975 4.22917C45.8208 2.5375 46.025 2.30417 46.6667 2.39167C47.2208 2.45 47.6 2.8875 48.3 4.17083Z" fill="#EECA62"/>
<path d="M25.2875 16.9458C25.025 17.1208 24.4708 17.8792 24.0625 18.6667C23.4208 19.9208 23.1875 20.125 22.2542 20.2708C19.6292 20.7083 18.6667 21.525 18.6667 23.3917C18.6667 24.2958 18.8708 24.675 19.8625 25.6375L21.0583 26.775L20.8542 28.6417C20.6792 30.3917 20.7083 30.5667 21.4375 31.4417C22.0792 32.2 22.4292 32.375 23.3917 32.375C24.0625 32.375 25.0542 32.1125 25.6958 31.7333L26.8333 31.0917L28.1458 31.7333C29.9833 32.6083 31.2375 32.5792 32.2292 31.5583C32.9875 30.8292 33.0167 30.6542 32.8708 28.875C32.725 27.0083 32.725 26.9792 33.8625 25.7542C34.7667 24.7625 35 24.2958 35 23.3917C35 21.9917 34.1542 20.825 32.9583 20.5917C32.4625 20.5042 31.675 20.3292 31.2083 20.2417C30.5375 20.125 30.2167 19.8042 29.8958 19.075C29.225 17.4708 28.2042 16.625 26.9208 16.625C26.3083 16.625 25.5792 16.7708 25.2875 16.9458ZM27.8542 20.1542C28.5833 21.7292 29.5167 22.4 31.2375 22.6333C32.8708 22.8375 33.0167 23.2167 31.9083 24.2375C30.5958 25.4625 30.275 26.425 30.4792 28.3208C30.7125 30.275 30.625 30.3333 28.875 29.4583C28.2333 29.1375 27.3875 28.875 26.9792 28.875C26.5708 28.875 25.725 29.1375 25.0833 29.4583C23.1583 30.45 23.0125 30.3333 23.2167 28.0292L23.4208 26.0167L22.1667 24.7042C21.4958 23.9458 21.0292 23.2458 21.1167 23.0708C21.2042 22.925 21.9333 22.7208 22.7208 22.6042C24.325 22.4 25.1125 21.7875 25.9583 20.125C26.2792 19.4833 26.7167 18.9583 26.95 18.9583C27.1542 18.9583 27.5625 19.4833 27.8542 20.1542Z" fill="#EECA62"/>
<path d="M64.8083 17.0917C64.4583 17.3251 63.875 18.0834 63.5542 18.7542C63.2042 19.4251 62.9125 20.0084 62.8833 20.0376C62.825 20.0959 62.0958 20.2417 61.25 20.4167C59.5 20.7376 58.45 21.5542 58.1875 22.7792C57.9542 23.7417 58.3625 24.5876 59.675 25.9584C60.6375 26.9792 60.6667 27.0667 60.4042 28.4376C59.7917 31.7917 61.95 33.3084 65.1292 31.7626L66.3833 31.1501L67.6083 31.7626C69.2125 32.5792 70.6417 32.5501 71.6625 31.6751C72.4208 31.0042 72.4792 30.8292 72.4208 28.8459C72.3333 26.7751 72.3625 26.7459 73.5 25.4917C74.7542 24.1209 74.9292 23.2459 74.2583 21.9042C73.7917 21.0292 72.7125 20.4167 71.6042 20.4167C70.4667 20.4167 70 20.0959 69.4167 18.9292C69.0958 18.3167 68.5417 17.5584 68.1917 17.2084C67.4333 16.5084 65.7417 16.4209 64.8083 17.0917ZM67.5208 20.4167C68.3667 22.0501 68.7167 22.3126 70.6708 22.6042C71.4292 22.7209 72.1292 22.9251 72.2167 23.1001C72.3042 23.2459 71.8375 23.9459 71.1667 24.7042L69.9125 26.0167L70.0583 28.0292C70.2333 30.3334 70.1167 30.4209 68.25 29.4584C67.6083 29.1376 66.7625 28.8751 66.3542 28.8751C65.9458 28.8751 65.1 29.1376 64.4583 29.4584C62.7083 30.3626 62.6208 30.3042 62.8542 28.1751L63.0292 26.3084L61.6875 24.8209C60.9583 23.9751 60.4333 23.1876 60.5208 23.0709C60.5792 22.9251 61.3083 22.7501 62.0958 22.6334C63.8167 22.4001 64.75 21.7292 65.4792 20.1542C65.7708 19.4834 66.1792 18.9584 66.3833 18.9584C66.6167 18.9584 67.1125 19.6001 67.5208 20.4167Z" fill="#EECA62"/>
<path d="M42.3792 27.475C38.5583 32.025 37.8583 32.6958 35.4375 34.3C31.9667 36.575 30.8 37.6833 29.05 40.3667C27.3875 42.9042 27.0667 43.1667 25.6375 43.1667C25.025 43.1667 24.7042 42.9917 24.5292 42.4958C24.3833 42.1458 23.8583 41.4458 23.3333 40.9792L22.4292 40.1042L11.6083 40.0167C3.7625 39.9583 0.7 40.0167 0.408333 40.2792C0.0583333 40.5417 0 43.0208 0 54.8333C0 62.6792 0.0875 69.2708 0.175 69.5333C0.320833 69.9417 1.575 70 11.2 70C21.4958 70 22.0792 69.9708 22.9833 69.4167C23.5083 69.0958 24.15 68.3958 24.4125 67.8417C24.8792 66.85 24.9083 66.8208 26.3667 66.9958C27.1833 67.0833 29.75 67.7542 32.0833 68.4833L36.3125 69.825L44.0125 69.9417C52.4125 70.0583 52.85 70 54.1333 68.4542C54.8042 67.6667 54.8917 67.3458 54.775 65.8875C54.6875 64.5167 54.7458 64.1667 55.1833 63.9042C56.6125 63.0292 57.3708 60.0833 56.5542 58.5667C56.2917 58.0708 56.3792 57.8375 57.1375 57.05C58.7417 55.4167 58.975 53.0542 57.7208 51.3042C57.1958 50.575 57.225 50.5167 57.925 49.1458C58.3042 48.3583 58.625 47.3958 58.625 46.9875C58.625 45.7625 57.4875 43.8083 56.35 43.1083C55.3292 42.4667 54.9208 42.4375 49.0875 42.35C44.45 42.2625 42.875 42.1458 42.875 41.8833C42.875 41.2125 44.8583 38.2083 46.6083 36.225C47.5708 35.1458 48.5917 33.8042 48.8833 33.25C49.6417 31.7333 49.5833 28.8167 48.7083 27.0375C47.9208 25.3458 47.1625 24.7917 45.7333 24.7917C44.7125 24.7917 44.4792 24.9667 42.3792 27.475ZM46.3167 27.475C46.4625 27.6792 46.7542 28.4083 46.9292 29.0792C47.4542 31.0333 46.9583 32.2583 44.5375 35.1167C42.2625 37.7417 40.5417 40.6 40.5417 41.7375C40.5417 42.7292 41.5917 44.3042 42.35 44.4792C42.7292 44.5375 45.7042 44.6542 48.9417 44.6833L54.8917 44.7708L55.5917 45.5875C56.4667 46.6083 56.4667 47.3083 55.5917 48.3292C54.8917 49.1458 54.8625 49.1458 50.4292 49.2917C46.6375 49.4083 45.9667 49.4958 45.675 49.9333C45.4417 50.3125 45.4417 50.6042 45.675 50.9542C45.9667 51.4208 46.6375 51.5083 50.5458 51.625C55.6792 51.8 56.1167 51.975 56.1167 53.8125C56.1167 55.65 55.6792 55.825 50.5458 56C46.6375 56.1167 45.9667 56.2042 45.675 56.6708C45.4417 57.0208 45.4417 57.3125 45.675 57.6917C45.9375 58.1 46.5208 58.1875 49.175 58.2458C52.8208 58.3333 53.4625 58.45 54.075 59.0917C54.6875 59.675 54.6583 61.3667 54.075 61.8625C53.725 62.1542 52.3833 62.3292 49.7875 62.4167C46.6083 62.5333 45.9375 62.65 45.675 63.0583C45.4417 63.4375 45.4417 63.7292 45.675 64.0792C45.9375 64.5167 46.5208 64.6333 48.8833 64.6917C50.4583 64.7208 51.9167 64.925 52.1208 65.1C52.7042 65.5667 52.5875 67.025 51.9458 67.375C51.5958 67.55 48.7375 67.6667 44.6833 67.6667C37.5083 67.6667 38.2375 67.7833 30.7708 65.6542C29.0208 65.1583 26.95 64.6917 26.1917 64.6042L24.7917 64.4292V54.95V45.5H26.0458C27.9125 45.5 29.1083 44.6833 30.4208 42.5542C31.9083 40.075 33.775 38.2083 36.6042 36.3417C38.9375 34.7958 41.4458 32.3458 44.1875 28.9333C45.0042 27.9417 45.7333 27.125 45.8208 27.125C45.9375 27.125 46.1417 27.3 46.3167 27.475ZM21.9333 42.7875C22.4292 43.225 22.4583 43.9833 22.4583 54.9208C22.4583 65.3917 22.4 66.6458 21.9625 67.1417C21.525 67.6375 20.825 67.6667 11.9 67.6667H2.33333V54.9792V42.2917H11.8708C20.3292 42.2917 21.4375 42.35 21.9333 42.7875Z" fill="#EECA62"/>
</svg>
