<svg width="70" height="70" viewBox="0 0 70 70" fill="none" xmlns="http://www.w3.org/2000/svg">
<path d="M42.7077 25.6582C42.4225 25.2441 42.2416 24.8983 42.1517 24.4639C42.0642 24.0412 42.0673 23.5539 42.1084 22.8683L42.1085 22.8661C42.1791 21.8204 42.4137 20.9529 42.8583 20.2444C43.3048 19.5329 43.9489 19.0044 44.7991 18.6147C45.3974 18.3373 46.1566 18.1595 46.8144 18.0955C47.1442 18.0633 47.4594 18.0587 47.7244 18.0882C47.9704 18.1156 48.2403 18.1788 48.4123 18.3387L48.432 18.357L48.4481 18.3785C48.5046 18.4539 48.5154 18.5338 48.5158 18.584C48.5162 18.6348 48.5065 18.6794 48.4972 18.7116C48.4787 18.7762 48.4476 18.8411 48.4156 18.8991C48.35 19.0184 48.2499 19.1638 48.1281 19.3229C47.8829 19.6432 47.5255 20.0496 47.1086 20.4671C46.6268 20.9631 46.2618 21.3727 46.0002 21.7251C45.7373 22.0791 45.5913 22.3592 45.5299 22.5954C45.4711 22.8216 45.487 23.0173 45.5711 23.2189C45.6591 23.4298 45.8268 23.6591 46.0948 23.9343C46.3696 24.2026 46.5986 24.3704 46.8091 24.4584C47.0103 24.5426 47.2056 24.5585 47.4312 24.4997C47.6671 24.4382 47.9467 24.2921 48.3003 24.0289C48.6522 23.767 49.0613 23.4016 49.5567 22.9193C49.9737 22.5019 50.3797 22.144 50.6997 21.8985C50.8585 21.7765 51.0038 21.6763 51.123 21.6106C51.181 21.5786 51.2458 21.5473 51.3104 21.5288C51.3427 21.5196 51.3873 21.5098 51.4382 21.5102C51.4884 21.5106 51.5685 21.5215 51.6439 21.5781L51.6654 21.5943L51.6837 21.614C51.8433 21.7861 51.9064 22.0561 51.9337 22.3023C51.9632 22.5675 51.9586 22.883 51.9265 23.2132C51.8625 23.8716 51.685 24.6314 51.408 25.2303C51.0188 26.0815 50.491 26.7265 49.7801 27.1736C49.0724 27.6188 48.2058 27.8537 47.1612 27.9244L47.159 27.9245C46.4742 27.9656 45.9874 27.9687 45.565 27.8811C45.1312 27.7911 44.7857 27.6101 44.3723 27.3247C43.822 26.9477 43.0844 26.2093 42.7077 25.6582ZM42.7077 25.6582C42.7078 25.6584 42.7079 25.6585 42.708 25.6587L42.955 25.4885L42.7074 25.6578C42.7075 25.6579 42.7076 25.6581 42.7077 25.6582ZM63.5218 4.06174L63.5217 4.06181L59.6641 7.89664L59.5543 8.00574L59.4018 7.97956L47.1182 5.87051L47.1176 5.8704L34.9063 3.80098L33.4439 4.27158L33.4439 4.27165L33.4373 4.27361C33.0909 4.37638 32.8083 4.48082 32.3607 4.78905C31.9009 5.10564 31.2691 5.63618 30.2358 6.59885C28.1716 8.52204 24.5516 12.1258 17.5866 19.0717C13.6201 23.0429 9.9071 26.8014 7.12454 29.6626C5.73313 31.0933 4.5752 32.2988 3.73482 33.194C3.3145 33.6417 2.97476 34.0106 2.72541 34.2907C2.46912 34.5785 2.32459 34.7547 2.27834 34.8268L2.27613 34.8302C1.01785 36.7332 0.4881 38.3002 0.327846 40.4392C0.167812 42.6299 0.703873 45.1438 1.76568 46.9776L1.76569 46.9776L1.76721 46.9803C1.80362 47.0447 1.90254 47.179 2.07657 47.3897C2.24532 47.594 2.47136 47.8543 2.74807 48.1637C3.30121 48.7823 4.05076 49.5905 4.93616 50.5268C6.70658 52.399 9.01514 54.7779 11.3705 57.1651C13.7259 59.5524 16.1269 61.9468 18.082 63.85C20.0462 65.7619 21.5402 67.158 22.0942 67.5674L22.0961 67.5688C23.1727 68.3772 24.1141 68.9056 25.1465 69.2348C26.1804 69.5645 27.3233 69.7 28.8104 69.7C30.1753 69.7 31.2248 69.5849 32.2031 69.2947C33.1811 69.0045 34.1045 68.5346 35.2114 67.8047L35.2142 67.8029C35.2862 67.7566 35.4621 67.6119 35.7497 67.3553C36.0294 67.1057 36.3978 66.7655 36.845 66.3447C37.7392 65.5033 38.9432 64.344 40.3722 62.951C43.23 60.1651 46.9839 56.4478 50.9503 52.4766C58.0801 45.3247 61.679 41.7077 63.5516 39.6826C64.4892 38.6686 64.9811 38.0674 65.2658 37.6294C65.5414 37.2054 65.6239 36.9341 65.7299 36.5559L65.7304 36.5539L66.1766 35.0036L64.1088 22.8544L64.1088 22.8543L62.0295 10.6102L62.0037 10.4582L62.1123 10.3488L65.9425 6.48653L65.9426 6.48647C66.9894 5.43152 67.7866 4.61459 68.3748 3.96118C68.9663 3.30421 69.3302 2.83009 69.5255 2.45947C69.7157 2.09825 69.7284 1.86942 69.6671 1.67749C69.5981 1.46147 69.4194 1.23433 69.0918 0.913223L69.0918 0.913269L69.0874 0.90876C68.7666 0.58078 68.5398 0.401886 68.3242 0.332878C68.1329 0.271629 67.9046 0.28418 67.5439 0.474655C67.1738 0.670097 66.7002 1.03444 66.044 1.62663C65.3914 2.21558 64.5755 3.01364 63.5218 4.06174ZM44.017 8.89456L44.0186 8.89484C45.6376 9.17555 47.2341 9.45053 48.6757 9.69881C51.5896 10.2007 53.8702 10.5935 54.4227 10.7041L54.4237 10.7043L55.9011 11.0056L56.4475 11.1171L56.0534 11.5116L53.9194 13.6481L51.8128 15.7573L51.6582 15.912L51.4636 15.8122L50.3445 15.2383C50.3441 15.2381 50.3436 15.2379 50.3432 15.2377C49.584 14.8581 48.3199 14.6538 46.9981 14.6572C45.6781 14.6606 44.3669 14.8709 43.5205 15.269L43.5176 15.2703C41.6702 16.1158 40.0532 17.76 39.2067 19.6131C38.8805 20.3481 38.7097 20.8044 38.6274 21.3083C38.5444 21.8168 38.5488 22.3899 38.6035 23.3625L38.6036 23.3625L38.6037 23.3669C38.6576 24.6598 38.8452 25.6841 39.2142 26.5832C39.5825 27.4805 40.1383 28.27 40.9512 29.0839C41.7642 29.8979 42.5527 30.4543 43.4488 30.8229C44.3468 31.1924 45.3697 31.3802 46.661 31.434L46.6654 31.4343C47.6368 31.4891 48.2091 31.4935 48.717 31.4103C49.2201 31.328 49.6759 31.157 50.4102 30.8303C52.2608 29.9828 53.9029 28.364 54.7475 26.5143L54.7488 26.5115C55.1464 25.664 55.3566 24.351 55.3599 23.0293C55.3633 21.7059 55.1592 20.4401 54.78 19.6799C54.7798 19.6794 54.7796 19.679 54.7794 19.6785L54.2061 18.5581L54.1068 18.3638L54.261 18.2094L56.3676 16.1003L58.5016 13.9637L58.8965 13.5684L59.0079 14.1159L59.3088 15.5951L59.3088 15.595L59.3097 15.5994C59.4881 16.5478 60.3163 21.3655 61.0992 25.9827C61.4908 28.2924 61.8713 30.5534 62.154 32.2578C62.2953 33.1099 62.4122 33.8233 62.4939 34.3342C62.5347 34.5895 62.5668 34.7951 62.5887 34.9423C62.5997 35.0158 62.6083 35.076 62.6142 35.121C62.6187 35.1553 62.6253 35.2053 62.6253 35.2399C62.6253 35.3039 62.6046 35.3515 62.5997 35.3629C62.5948 35.3742 62.5898 35.3841 62.5854 35.3921C62.5824 35.3976 62.5797 35.4022 62.5775 35.4058C62.5737 35.4122 62.5697 35.4183 62.5658 35.4242C62.5587 35.4349 62.5517 35.4444 62.5459 35.4521C62.5273 35.4769 62.5033 35.506 62.4767 35.537C62.4226 35.6001 62.3445 35.6867 62.2454 35.794C62.0466 36.0094 61.7547 36.3171 61.381 36.7061C60.633 37.4845 59.5523 38.5931 58.22 39.9493C55.5551 42.6618 51.8816 46.3671 47.8457 50.4078C41.1989 57.0626 37.4812 60.7642 35.2612 62.8633C33.0536 64.9508 32.2928 65.4895 31.5705 65.7609C29.6366 66.501 27.948 66.4691 25.9178 65.7351L25.9155 65.7343C25.1254 65.4413 24.5245 65.0978 23.0133 63.7196C21.5088 62.3473 19.0745 59.9237 14.6177 55.4479C10.1472 50.9857 7.72644 48.5486 6.35585 47.0422C4.97921 45.5292 4.63622 44.9277 4.34362 44.1368L4.34279 44.1345C3.6097 42.1019 3.57787 40.4116 4.31707 38.4755C4.5881 37.7525 5.12622 36.9908 7.21107 34.7807C9.30771 32.5581 13.0049 28.836 19.6517 22.1812C23.6876 18.1405 27.3885 14.4626 30.0978 11.7946C31.4524 10.4607 32.5596 9.37867 33.3371 8.62981C33.7257 8.25559 34.033 7.96344 34.2482 7.76433C34.3553 7.66512 34.4418 7.58698 34.5049 7.53279C34.5358 7.50619 34.5649 7.48211 34.5897 7.46345C34.6015 7.45457 34.6178 7.44274 34.636 7.43179C34.6448 7.42645 34.6598 7.4178 34.6789 7.40961C34.6903 7.4047 34.7379 7.38388 34.802 7.38388C34.8356 7.38388 34.8841 7.3905 34.9135 7.39443C34.9548 7.39995 35.0104 7.40798 35.0788 7.41823C35.2158 7.43877 35.4086 7.4689 35.6504 7.50747C36.1342 7.58463 36.8171 7.69601 37.6483 7.83299C39.3108 8.10698 41.5682 8.48367 44.017 8.89456Z" fill="#EECA62" stroke="white" stroke-width="0.6"/>
</svg>
