<svg width="62" height="70" viewBox="0 0 62 70" fill="none" xmlns="http://www.w3.org/2000/svg">
<path d="M3.00578 0.575142C1.56698 1.28713 0.64397 2.49204 0.236761 4.10771C0.0195829 4.984 -0.0347116 13.4183 0.0195829 33.2719C0.101025 60.6287 0.101025 61.2312 0.64397 62.1349C0.94259 62.6552 1.64842 63.4493 2.21851 63.9148L3.27725 64.7637L9.81974 64.8459C15.7107 64.9281 16.4165 64.8733 16.7151 64.4625C16.9595 64.1339 16.9595 63.8601 16.7694 63.5041C16.5251 63.0112 16.0908 62.9838 10.6613 62.9838C4.11882 62.9838 3.38584 62.8195 2.57143 61.2586C2.13707 60.4644 2.10992 58.1368 2.19136 32.0944L2.27281 3.7791L3.16866 2.98495L4.03738 2.19081H20.19H36.3426V6.0246C36.3426 9.03687 36.4512 10.0775 36.777 10.7621C38.0257 13.254 39.1116 13.6922 43.9438 13.6922H47.7445V22.6194C47.7445 31.711 47.8259 32.5873 48.7761 32.5873C49.8891 32.5873 49.9162 32.2861 49.9162 22.6742C49.9162 14.9245 49.8348 13.2267 49.509 12.3777C48.9932 11.1728 40.0618 1.97174 38.2701 0.79422L37.0484 7.62939e-05H20.6244C4.39029 7.62939e-05 4.14597 7.62939e-05 3.00578 0.575142ZM43.6724 11.7205C39.1388 11.8574 38.2429 10.9811 38.2429 6.29845V3.4231L42.315 7.53074L46.3871 11.6384L43.6724 11.7205Z" fill="#EECA62"/>
<path d="M7.53945 12.2133C7.29512 12.5146 7.26797 12.761 7.48515 13.0896C7.72948 13.5004 8.65248 13.5552 16.6609 13.5552C24.6694 13.5552 25.5924 13.5004 25.8367 13.0896C26.0539 12.761 26.0267 12.5146 25.7824 12.2133C25.4566 11.83 24.3165 11.7752 16.6609 11.7752C9.0054 11.7752 7.86521 11.83 7.53945 12.2133Z" fill="#EECA62"/>
<path d="M7.56653 19.3058C7.40364 19.5248 7.3222 19.9356 7.43079 20.2642C7.59368 20.8119 7.64797 20.8119 25.0222 20.7571L42.4508 20.675L42.5322 20.0177C42.5865 19.6617 42.4779 19.251 42.2607 19.1414C42.0707 19.0045 34.2523 18.895 24.9136 18.895C10.3627 18.895 7.86515 18.9498 7.56653 19.3058Z" fill="#EECA62"/>
<path d="M7.62085 25.5222C7.18649 25.9603 7.21364 26.4258 7.72944 26.9461C8.1095 27.3295 10.037 27.3843 24.8322 27.3843C35.8268 27.3843 41.7178 27.2747 42.0707 27.1104C42.6408 26.7818 42.7494 26.0151 42.2607 25.5222C41.7992 25.0566 8.08235 25.0566 7.62085 25.5222Z" fill="#EECA62"/>
<path d="M18.0996 34.8054C17.5295 35.0245 16.3893 36.7497 12.7516 42.9659C9.76542 48.032 8.10944 51.099 8.10944 51.5919C8.10944 52.7968 8.54379 53.3171 10.3898 54.3577C12.1815 55.3709 13.8375 55.6174 14.9505 55.0149C15.7921 54.5494 15.8193 54.9054 15.0591 56.2198C14.2176 57.6712 14.1633 58.9583 14.8962 60.1905C15.4392 61.0668 16.8237 61.8884 17.801 61.8884C18.0996 61.8884 18.4254 62.217 18.6154 62.7099C18.9683 63.641 20.4071 64.6268 21.4387 64.6268C21.9817 64.6268 22.2532 64.8185 22.4975 65.4757C22.959 66.5985 24.2621 67.3652 25.6737 67.3652C26.5967 67.3652 26.9496 67.5295 27.7369 68.3237C28.5785 69.1726 28.8499 69.2821 30.0444 69.2821C30.9674 69.2821 31.5918 69.1178 32.0805 68.7344L32.7863 68.1594L34.1708 69.0356C36.7226 70.6239 39.1116 70.2132 40.0075 68.0772C40.3875 67.1735 40.4418 67.1461 41.3105 67.42C42.7222 67.8581 44.5411 66.9544 45.1926 65.4757C45.5998 64.4899 45.7898 64.3529 46.5228 64.3529C47.7173 64.3529 49.1832 63.3123 49.4819 62.2444C49.7262 61.4776 49.8348 61.3955 50.5949 61.5324C53.0653 61.9431 55.1285 59.2321 54.1512 56.8497C53.7711 55.9186 53.7711 55.8638 54.3412 55.5352C54.667 55.3709 55.5085 55.2614 56.2144 55.2888C57.2188 55.3435 57.8432 55.1792 59.1191 54.4946C60.015 54.0017 60.9651 53.3719 61.2095 53.0707C62.2139 51.9753 61.861 51.1538 57.0831 43.0206C51.545 33.6279 51.545 33.6005 48.3145 35.8186C46.2513 37.2152 45.7084 38.0641 45.7355 39.7345C45.7355 41.049 45.7355 41.0764 44.894 41.0764C44.4325 41.0764 43.2923 40.7751 42.3693 40.3918C40.3604 39.5702 39.546 39.5428 36.9398 40.2275C34.9852 40.7478 34.9309 40.7478 33.8179 40.2275C32.2705 39.5428 30.7774 39.5702 28.6328 40.3918C25.6194 41.5419 24.2621 41.2133 24.072 39.3238C23.882 37.7355 23.2305 36.8592 21.4387 35.7638C19.5656 34.6411 19.0226 34.4768 18.0996 34.8054ZM20.4614 37.5986C22.6875 39.0499 22.6332 39.269 18.3711 46.5532C15.8464 50.8251 14.5162 52.8242 14.0004 53.1254C13.2946 53.5088 13.1588 53.4814 11.6929 52.6873C10.8513 52.2217 10.1726 51.6741 10.2269 51.4824C10.3355 51.0168 18.7783 36.6949 18.9683 36.6949C19.0498 36.6949 19.7285 37.1057 20.4614 37.5986ZM55.3728 44.1982C58.3862 49.319 59.6078 51.6467 59.4178 51.8931C59.282 52.0574 58.549 52.4956 57.7889 52.8516C55.8615 53.7553 55.4814 53.5088 53.2825 49.7298C51.4365 46.5806 51.0835 46.1698 50.3506 46.4437C49.4819 46.7723 49.6719 47.539 51.4093 50.6061C53.1196 53.5362 53.1739 53.7553 52.7124 54.1113C52.4409 54.3029 52.088 54.4946 51.9523 54.4946C51.7894 54.4946 48.586 52.6325 44.7854 50.387C41.0119 48.1141 37.6999 46.2794 37.4556 46.2794C36.7769 46.2794 36.3426 46.827 36.3426 47.676C36.3426 48.5249 35.1481 49.8393 34.4151 49.8393C33.9536 49.8393 33.8993 49.5929 33.8993 46.9914C33.8993 43.4862 34.0894 43.1576 36.7498 42.4182C39.2202 41.7336 39.9803 41.761 42.4779 42.6099C44.4325 43.2671 44.894 43.2945 46.4142 42.829C46.6585 42.7742 46.9843 42.9659 47.2015 43.3766C47.5815 44.1434 48.0973 44.4172 48.6674 44.1982C49.4004 43.8969 49.3733 43.1849 48.5588 41.7336C47.7444 40.2275 47.5544 39.3238 47.9888 38.6392C48.2874 38.1736 50.5135 36.7223 50.8392 36.8044C50.9478 36.8318 53.011 40.1727 55.3728 44.1982ZM32.732 41.98C32.7591 42.0348 32.5691 42.5551 32.2705 43.1302C31.809 44.0065 31.7275 44.7458 31.7275 47.32C31.7275 50.387 31.7275 50.4418 32.5148 51.2359C32.9492 51.6741 33.5193 52.0301 33.7907 52.0301C35.0124 52.0301 36.4512 51.3181 37.4285 50.1953L38.4601 49.0178L44.9211 52.879C48.5046 54.9875 51.6265 56.9318 51.898 57.1509C52.821 57.9998 52.3052 59.4238 51.0835 59.4238C50.7578 59.4238 48.3145 58.1367 45.6541 56.5484C43.0208 54.9602 40.7676 53.6731 40.6861 53.6731C40.2789 53.6731 39.6003 54.7137 39.736 55.0971C39.8446 55.3435 41.6091 56.5211 43.6995 57.7807C47.5815 60.081 48.2602 60.793 47.473 61.7514C46.74 62.6551 46.1699 62.4908 42.4236 60.2727C40.3875 59.0404 38.5144 58.0546 38.2429 58.0546C37.5371 58.0546 37.0484 58.7392 37.3742 59.3143C37.5371 59.5881 38.9216 60.5739 40.4418 61.4776C42.8036 62.9016 43.2923 63.285 43.3466 63.9148C43.4552 64.8185 42.9937 65.4483 42.2335 65.4483C41.9078 65.4483 40.5233 64.7637 39.1388 63.9148C36.3426 62.2444 35.3924 62.0801 35.3924 63.3123C35.3924 63.86 35.691 64.216 36.7498 64.9554C38.1614 65.8865 38.5687 66.7628 37.9714 67.5295C37.4828 68.1046 36.4512 67.995 35.0938 67.2009C34.0894 66.5985 33.9536 66.4068 34.1708 65.996C34.9309 64.572 34.0079 62.0801 32.542 61.5324C31.7818 61.2585 31.7275 61.1216 31.7275 59.8893C31.7275 58.7392 31.5918 58.4106 30.8317 57.6438C30.2887 57.0961 29.5286 56.658 28.9042 56.5484C28.1713 56.4115 27.7912 56.1377 27.4926 55.5352C26.651 53.9196 24.5607 53.235 22.959 54.0839C22.226 54.4672 22.1174 54.4399 21.2759 53.7826C20.3257 53.0707 19.0769 52.8516 17.8282 53.2076C17.3124 53.3445 17.068 53.3171 17.068 53.098C17.068 52.9337 18.4525 50.4692 20.1085 47.6212C22.769 43.1028 23.2576 42.4456 23.7191 42.5825C26.0809 43.3219 26.461 43.3219 28.7956 42.473C30.7231 41.761 32.2976 41.5693 32.732 41.98ZM19.9999 55.3709C20.5972 55.9734 20.3528 57.1235 19.3755 58.438C18.2354 59.8893 17.3395 60.1084 16.6608 59.0404C16.145 58.2737 16.3079 57.8355 17.6653 56.0555C18.5068 55.0149 19.3755 54.7411 19.9999 55.3709ZM25.4294 56.1925C26.0538 56.8223 25.728 57.7807 24.0992 60.1084C22.7147 62.0527 22.3346 62.4361 21.7102 62.4361C20.8415 62.4361 20.3257 61.9979 20.3257 61.2038C20.3257 60.6835 23.0676 56.5211 23.7191 56.0829C24.1535 55.7543 25.0765 55.8365 25.4294 56.1925ZM29.3386 59.0678C29.6101 59.3143 29.8272 59.725 29.8272 59.9715C29.8272 60.4096 26.7596 64.8459 26.1895 65.2292C26.0266 65.3388 25.728 65.4483 25.5651 65.4483C25.1036 65.4483 24.1263 64.4625 24.1263 63.997C24.1263 63.7779 24.9136 62.4908 25.8909 61.1216C27.764 58.4653 28.3341 58.1367 29.3386 59.0678ZM32.1619 63.9422C32.5691 64.572 32.5691 64.6816 32.1348 65.3662C30.886 67.3378 30.153 67.7486 29.23 66.8997C28.5242 66.2698 28.6328 65.5305 29.5829 64.3256C30.5874 63.0659 31.4832 62.929 32.1619 63.9422Z" fill="#EECA62"/>
</svg>
