<svg width="70" height="89" viewBox="0 0 70 89" fill="none" xmlns="http://www.w3.org/2000/svg">
<path d="M17.5693 9.84186C8.24753 15.2132 0.485149 19.8567 0.311881 20.1339C0.138614 20.4112 0 29.1438 0 40.0597C0 55.0646 0.10396 59.6042 0.415842 60.0547C0.658416 60.3666 3.67327 62.2726 7.10396 64.2478L13.3416 67.8171L13.4455 69.3419C13.5149 70.1735 13.7228 71.0399 13.896 71.2478C14.0693 71.4904 15.2475 71.8716 16.4604 72.1141C18.401 72.4953 18.7129 72.6686 19.0941 73.5696C19.5446 74.6785 19.5446 74.7131 17.4653 78.2131L16.8069 79.3221L19.5792 82.129C21.2079 83.7924 22.6287 84.9013 23.0446 84.9013C23.4257 84.9013 24.5693 84.3468 25.5396 83.6884C27.3416 82.4755 27.896 82.4409 29.3861 83.3765C29.4554 83.4112 29.7327 84.4161 30.0099 85.629C30.2871 86.8072 30.703 88.0201 30.9109 88.2626C31.4307 88.8864 38.5693 88.8864 39.0891 88.2626C39.297 88.0201 39.7129 86.8072 39.9901 85.629C40.2673 84.4161 40.5446 83.4112 40.6139 83.3765C42.104 82.4409 42.6584 82.4755 44.4604 83.6884C45.4307 84.3468 46.5743 84.9013 46.9554 84.9013C47.3713 84.9013 48.7921 83.7924 50.4208 82.129L53.1931 79.3221L52.5347 78.2131C50.4554 74.7131 50.4554 74.6785 50.9059 73.5696C51.2871 72.6686 51.599 72.4953 53.5396 72.1141C54.7525 71.8716 55.9307 71.4904 56.104 71.2478C56.2772 71.0399 56.4851 70.1735 56.5545 69.3419L56.6584 67.8171L62.896 64.2478C66.3267 62.2726 69.3416 60.3666 69.5842 60.0547C69.896 59.6042 70 55.03 70 40.025C70 24.9854 69.896 20.4458 69.5842 20.03C69.0297 19.3369 35.5545 0.000274658 34.9307 0.000274658C34.6881 0.034935 26.8564 4.43592 17.5693 9.84186ZM50.5248 11.9557C58.7723 16.7032 65.495 20.6884 65.495 20.7924C65.4604 20.8963 58.6337 24.9161 50.2822 29.7329L35.0693 38.4656L20.203 29.9409C12.0594 25.228 5.16337 21.2082 4.95545 21.0003C4.60891 20.6884 8.07426 18.5399 19.6832 11.8518C28 7.03493 35 3.15374 35.2079 3.1884C35.3812 3.25771 42.3119 7.17355 50.5248 11.9557ZM18.3663 31.9854L33.4406 40.7181L33.5446 43.0745C33.6485 45.3617 33.6485 45.3963 32.7475 45.3963C31.3614 45.3963 30.5644 45.9854 30.3218 47.1983C29.6634 50.3518 29.4554 50.8716 28.4158 51.2874C27.5149 51.6686 27.2376 51.5993 25.3663 50.4557C24.2228 49.7626 23.0792 49.2082 22.802 49.2082C22.2822 49.2082 16.9802 54.4409 16.9802 54.9607C16.9802 55.1339 17.5347 56.1735 18.2277 57.2825C19.302 59.0498 19.4406 59.4656 19.1634 60.4013C18.8861 61.4062 18.6436 61.5795 16.8069 62.03C13.8614 62.7924 13.5149 62.9656 13.5149 63.7626C13.5149 64.1438 13.4109 64.4557 13.2723 64.4557C13.1683 64.4557 10.7426 63.1042 7.90099 61.4755L2.77228 58.4953V40.8567C2.77228 31.1537 2.87624 23.2181 3.0495 23.2528C3.18812 23.2528 10.0842 27.2032 18.3663 31.9854ZM67.2277 40.8567V58.4953L62.099 61.4755C59.2574 63.1042 56.8317 64.4557 56.7277 64.4557C56.5891 64.4557 56.4851 64.1438 56.4851 63.7626C56.4851 62.9656 56.1386 62.7924 53.1931 62.03C51.3564 61.5795 51.1139 61.4062 50.8366 60.4013C50.5594 59.4656 50.698 59.0498 51.7723 57.2825C52.4653 56.1735 53.0198 55.1339 53.0198 54.9607C53.0198 54.4409 47.7178 49.2082 47.198 49.2082C46.9208 49.2082 45.7772 49.7626 44.6337 50.4557C42.7624 51.5993 42.4851 51.6686 41.5842 51.2874C40.5446 50.8716 40.3366 50.3518 39.6782 47.1983C39.4356 45.9854 38.6386 45.3963 37.2525 45.3963C36.3515 45.3963 36.3515 45.3617 36.4554 43.1092L36.5594 40.8221L51.8069 32.0201C60.1931 27.1686 67.0891 23.2181 67.1238 23.2181C67.1931 23.2181 67.2277 31.1537 67.2277 40.8567ZM37.5297 50.4557C37.8416 51.7032 38.1188 52.7775 38.1881 52.8122C38.5693 53.124 42.4158 54.7528 42.7624 54.7528C42.9703 54.7528 44.0099 54.1983 45.0495 53.5399L46.9208 52.327L48.2376 53.6092C48.9653 54.3023 49.5545 55.0646 49.5545 55.2726C49.5545 55.4805 49.104 56.3815 48.5149 57.2825C47.9604 58.1834 47.4753 59.1191 47.4753 59.3617C47.4753 59.6042 47.8564 60.7131 48.3069 61.8567L49.1733 63.9359L51.3564 64.4557L53.5396 65.0102L53.6436 67.124L53.7475 69.2379L51.5644 69.723C49.3812 70.1735 49.3812 70.1735 48.4455 72.0795C47.2673 74.5052 47.2673 74.9557 48.5149 77.0003C49.104 77.9013 49.5545 78.8023 49.5545 78.9409C49.5545 79.0795 48.9307 79.8072 48.203 80.5349L46.8168 81.8864L45.1188 80.7775C43.0743 79.4953 42.5891 79.4607 40.0941 80.5696C38.0495 81.4706 38.0842 81.4013 37.2871 84.9706C37.0792 85.9062 36.9753 85.9409 35 85.9409C33.0248 85.9409 32.9208 85.9062 32.7129 84.9706C31.9158 81.4013 31.9505 81.4706 29.9059 80.5696C27.4455 79.4607 27.0644 79.4953 24.9158 80.7775L23.1832 81.8864L21.797 80.5349C21.0693 79.8072 20.4455 79.0795 20.4455 78.9409C20.4455 78.8023 20.896 77.9013 21.4851 77.0003C22.7327 74.9557 22.7327 74.5052 21.5545 72.0795C20.6188 70.1735 20.6188 70.1735 18.4356 69.723L16.2525 69.2379L16.3564 67.124L16.4604 65.0102L18.6436 64.4557L20.8267 63.9359L21.6931 61.8567C22.1436 60.7131 22.5248 59.6042 22.5248 59.3617C22.5248 59.1191 22.0396 58.1834 21.4851 57.2825C20.896 56.3815 20.4455 55.4805 20.4455 55.2726C20.4455 55.0646 21.0347 54.3023 21.7624 53.6092L23.0792 52.327L24.9505 53.5399C25.9901 54.1983 27.0297 54.7528 27.2376 54.7528C27.5842 54.7528 31.4307 53.124 31.8119 52.8122C31.8812 52.7775 32.1584 51.7032 32.4703 50.4557L32.9901 48.1686H35H37.0099L37.5297 50.4557Z" fill="#EECA62"/>
<path d="M32.0545 56.5895C29.6981 57.3865 28.5545 58.1143 26.9258 59.9509C20.6535 66.9162 25.609 77.9707 35 77.9707C39.2624 77.9707 42.8317 75.7529 44.7377 71.9063C46.0545 69.238 46.2278 66.3964 45.2575 63.4856C44.4258 61.0252 41.8268 58.2182 39.4357 57.1786C37.2179 56.243 33.9604 55.9658 32.0545 56.5895ZM38.708 59.9162C41.4456 61.3024 43.0397 64.0054 43.0397 67.2628C43.0397 71.6638 39.4357 75.1984 34.9307 75.1984C28.3812 75.1638 24.604 67.7133 28.4505 62.4113C30.8416 59.1192 35.104 58.0796 38.708 59.9162Z" fill="#EECA62"/>
</svg>
