<svg width="70" height="71" viewBox="0 0 70 71" fill="none" xmlns="http://www.w3.org/2000/svg">
<path d="M55.3711 1.30904C54.9336 1.52789 51.543 4.72848 47.8516 8.42147L41.1523 15.1509H25.1016H9.02344V9.84395C9.02344 3.6069 9.05078 3.68897 6.64453 4.18137C3.69141 4.75584 1.58594 6.56129 0.546875 9.35155C0.0273438 10.7467 0 11.54 0 33.5885C0 53.0929 0.0546875 56.5671 0.410156 57.7434C0.957031 59.6035 2.81641 61.6552 4.70312 62.5032L6.15234 63.1597L22.5039 63.2965L38.8281 63.4333L35.957 66.3056C33.0039 69.26 32.5391 70.108 33.6055 70.6825C34.3438 71.0655 68.7422 71.0655 69.4805 70.6825C69.9727 70.4089 70 69.9165 70 52.409C70 33.9168 70 33.7526 68.9609 33.7526C68.7695 33.7526 67.7852 34.5186 66.8281 35.4487L65.0781 37.1173V26.4761C65.0781 18.543 64.9961 15.7254 64.75 15.4792C64.5312 15.2603 63.1367 15.1509 60.3203 15.1509H56.1914L59.2539 12.0597C62.5625 8.74973 63.082 7.92907 62.6172 6.56129C62.2891 5.52179 58.4062 1.60995 57.3398 1.22698C56.3828 0.871361 56.3828 0.871361 55.3711 1.30904ZM58.6797 4.81055C61.0039 7.02634 61.1133 7.46402 59.582 9.02328L58.4062 10.2269L56.1367 7.98378C54.8789 6.75278 53.8672 5.5765 53.8672 5.41237C53.8672 4.94732 55.9727 3.11451 56.4922 3.11451C56.7383 3.11451 57.7227 3.88046 58.6797 4.81055ZM7.10938 21.8256C7.10938 38.5672 7.08203 38.321 8.39453 38.0748C8.85938 37.9927 8.88672 37.3362 8.96875 27.6524L9.02344 17.3393H23.9805H38.9648L36.0117 20.2937C33.0039 23.3302 32.5117 24.2329 33.6602 24.5885C34.1523 24.7527 35.3828 23.6585 41.5352 17.5035L48.8086 10.2269L51.2148 12.6342L53.5938 15.0141L42.9844 25.6281L32.4023 36.2146L29.9961 33.8073L27.6172 31.4274L29.832 29.2116C31.6367 27.4062 32.0195 26.8864 31.8555 26.394C31.5 25.2451 30.5977 25.7375 27.8359 28.473L25.1836 31.0991L23.4883 35.9958L21.7656 40.865H19.7969C18.0742 40.865 17.7461 40.9471 17.5 41.4122C17.2812 41.8225 17.3359 42.0687 17.7734 42.5064C18.3203 43.0535 18.6211 43.0535 32.5664 43.0535C41.8359 43.0535 46.9766 42.9441 47.332 42.7799C47.9062 42.4517 48.0156 41.6857 47.5234 41.1933C47.2773 40.9471 44.543 40.865 36.9414 40.8377H26.6602L29.668 39.7435L32.6758 38.6493L43.3398 28.008L54.0039 17.3393H58.5977H63.1641V28.1995V39.0869L55.6445 46.6097C51.5156 50.7677 48.125 54.3513 48.125 54.5701C48.125 55.0899 48.6719 55.637 49.1914 55.637C49.4375 55.637 53.7305 51.5337 58.707 46.555L67.8125 37.4456V41.9046V46.3361H66.7734C65.6523 46.3361 65.0781 46.7191 65.0781 47.4851C65.0781 48.0869 65.8711 48.5246 66.9648 48.5246C67.8125 48.5246 67.8125 48.5246 67.8125 50.0291V51.5337H66.7734C65.625 51.5337 65.0781 51.9166 65.0781 52.6826C65.0781 53.2297 66.0625 53.7221 67.1562 53.7221C67.7578 53.7221 67.8125 53.8042 67.8125 55.1993V56.7039L66.5273 56.7859C65.2695 56.868 65.2148 56.8953 65.2148 57.6887C65.2148 58.482 65.2695 58.5093 66.5273 58.5914L67.8125 58.6734V60.3148V61.9287H66.582C65.6797 61.9287 65.2969 62.0655 65.1602 62.3664C64.8594 63.1324 65.4609 63.7069 66.6914 63.7889L67.8125 63.871V66.333V68.7676H52.1719H36.5039L41.7812 63.488C46.1289 59.1385 47.0586 58.0716 46.9766 57.5245C46.9219 57.0595 46.7031 56.8406 46.2109 56.7859C45.6641 56.7312 45.0625 57.1689 43.3398 58.9196L41.1523 61.1081H23.9258H6.67188L5.22266 60.3968C3.08984 59.33 2.32422 58.0169 2.32422 55.4729C2.32422 53.8042 2.43359 53.3665 3.00781 52.5458C4.07422 51.0413 5.14062 50.3574 7.08203 49.8923L8.88672 49.4547V44.941V40.4547H8.06641H7.24609L7.16406 44.0656L7.08203 47.6766L5.96094 48.0048C4.75781 48.3057 3.80078 48.8528 2.81641 49.7282L2.1875 50.248V30.4426C2.1875 11.8135 2.24219 10.5825 2.70703 9.54304C3.36328 8.06585 5.66016 6.20567 6.91797 6.1236C7.02734 6.1236 7.10938 13.1813 7.10938 21.8256ZM54.6875 9.26949L56.9844 11.5947L56.0547 12.5521L55.125 13.5096L52.7188 11.1297L50.3125 8.74973L51.1875 7.847C51.6797 7.3546 52.1445 6.94427 52.2266 6.94427C52.3086 6.94427 53.4023 7.98378 54.6875 9.26949ZM29.3398 37.6371C27.918 38.2936 27.3711 38.2389 26.4688 37.3909C25.5664 36.5429 25.5391 36.242 26.168 34.628L26.6055 33.4517L28.4922 35.3119L30.3789 37.1721L29.3398 37.6371Z" fill="#EECA62"/>
<path d="M55.4257 55.8287C52.2812 58.9746 49.6015 61.7375 49.4648 61.9837C49.3007 62.312 49.3007 62.6676 49.4921 63.0232C49.7656 63.543 50.0664 63.5703 55.8632 63.5703C60.2382 63.5703 62.0429 63.4882 62.289 63.242C62.5351 62.9958 62.6171 61.2177 62.6171 56.9776C62.6171 51.9442 62.5625 50.9594 62.1796 50.6038C61.9609 50.3576 61.6328 50.1661 61.4414 50.1661C61.2773 50.1661 58.5703 52.7102 55.4257 55.8287ZM60.4296 57.6889V61.3819H56.6835H52.9101L56.6015 57.6889C58.625 55.6646 60.3203 53.9959 60.3476 53.9959C60.4023 53.9959 60.4296 55.6646 60.4296 57.6889Z" fill="#EECA62"/>
</svg>
