<svg width="70" height="70" viewBox="0 0 70 70" fill="none" xmlns="http://www.w3.org/2000/svg">
<path d="M32.1371 0.367004L32.1347 0.367325C28.2849 0.886238 26.9068 1.18453 24.6566 1.88961C11.7379 5.98921 2.70087 16.6278 0.582934 30.2073C0.0957644 33.3754 0.259155 38.8689 0.908203 41.8715C4.46493 58.3018 18.4428 69.7 34.9415 69.7C42.1359 69.7 48.3191 67.8285 54.3743 63.7816L54.3747 63.7813C63.2192 57.8925 68.9468 47.8754 69.5981 37.1252L69.5983 37.123C69.6952 35.6961 69.7318 35.0109 69.6691 34.5783C69.6399 34.3766 69.5899 34.2413 69.5156 34.1146C69.4359 33.9787 69.3245 33.845 69.1502 33.6428L69.147 33.639L68.5526 32.9255H64.2586H59.9616L59.3702 33.6116C59.3697 33.6122 59.3692 33.6129 59.3687 33.6135C59.1012 33.9347 58.9709 34.1419 58.9105 34.3439C58.8515 34.5418 58.8498 34.7682 58.9153 35.1483L58.9154 35.1483L58.9162 35.1541C58.9755 35.543 59.0574 35.825 59.1772 36.0369C59.2923 36.2405 59.4492 36.3915 59.6861 36.5078C59.9311 36.6282 60.268 36.7144 60.7439 36.7687C61.2182 36.8228 61.8121 36.8433 62.5615 36.8433H65.1619H65.4924L65.4606 37.1722L65.2963 38.8698L65.2962 38.8705C64.6865 45.025 61.3666 51.7412 56.5598 56.5492C51.808 61.3022 45.1493 64.6223 39.0527 65.2876L39.051 65.2878L37.4634 65.452L37.1325 65.4863V65.1536V62.9084C37.1325 61.7294 37.0302 60.8626 36.8256 60.2361C36.6245 59.6199 36.3307 59.2531 35.9492 59.0383C35.1608 58.6344 34.2677 58.7808 33.6796 59.3926L33.6798 59.3928L33.6707 59.4014C33.5181 59.5475 33.418 59.6573 33.3443 59.7738C33.2731 59.8862 33.219 60.0172 33.1788 60.2108C33.0941 60.6186 33.079 61.2534 33.079 62.4703V65.0715V65.3715H32.779H31.8483C31.1984 65.3715 30.0768 65.201 28.8672 64.944C27.6513 64.6856 26.3187 64.3336 25.2368 63.9591C15.6162 60.7508 7.96172 52.5693 5.38969 42.7259C5.05673 41.5592 4.75341 39.9309 4.64247 39.071L4.64239 39.071L4.64165 39.064L4.47741 37.5033L4.44359 37.1819L4.76658 37.172L7.44534 37.09C7.44594 37.09 7.44654 37.09 7.44714 37.0899C8.72226 37.0345 9.35174 37.0003 9.74731 36.8975C9.93164 36.8495 10.0529 36.789 10.1608 36.7076C10.2752 36.6212 10.3849 36.5037 10.5413 36.3201C10.9278 35.8584 11.1065 35.3712 11.1036 34.9206C11.1007 34.4728 10.9188 34.0348 10.5344 33.6624L10.5343 33.6625L10.5264 33.6543C10.3793 33.5004 10.2711 33.4005 10.1563 33.3269C10.0459 33.2563 9.91722 33.2024 9.72411 33.1622C9.31654 33.0776 8.67534 33.0624 7.431 33.0624H4.77576H4.44584L4.47712 32.734L4.64135 31.009L4.64145 31.008C5.44477 22.862 10.9185 14.1033 18.2165 9.37461C22.056 6.8604 26.8905 5.06213 30.8568 4.61824L30.8588 4.61803L32.4191 4.45375L32.7405 4.41991L32.7503 4.74292L32.8323 7.4225C32.8324 7.42304 32.8324 7.42358 32.8324 7.42412C32.8879 8.71403 32.9222 9.34217 33.0277 9.73652C33.0767 9.91951 33.1389 10.0409 33.2242 10.1513C33.3151 10.2689 33.4381 10.3825 33.6296 10.5467C33.9509 10.8144 34.1581 10.9448 34.3601 11.0052C34.5579 11.0643 34.7843 11.0659 35.1642 11.0004L35.1642 11.0004L35.17 10.9995C35.5588 10.9402 35.8407 10.8583 36.0525 10.7384C36.256 10.6234 36.407 10.4664 36.5233 10.2295C36.6437 9.98433 36.7299 9.64729 36.7841 9.17131C36.8382 8.69686 36.8587 8.10284 36.8587 7.35325V4.7521V4.42011L37.189 4.45363L39.0753 4.64505C39.076 4.64511 39.0766 4.64517 39.0773 4.64523C41.4703 4.86827 45.2249 5.91916 47.8511 7.1358L47.852 7.13623C51.228 8.71397 53.7745 10.5431 56.9157 13.6851L56.9167 13.6862C58.2785 15.062 59.0201 15.7889 59.5356 16.1764C59.7881 16.3662 59.9713 16.4626 60.1331 16.5149C60.294 16.5669 60.4532 16.5817 60.6727 16.5817C61.3184 16.5817 61.7256 16.413 62.0688 16.0468L62.0707 16.0448C62.2073 15.9017 62.2892 15.8005 62.3517 15.6644C62.416 15.5242 62.4685 15.3265 62.5062 14.9836C62.5826 14.289 62.5899 13.0989 62.5899 10.8032C62.5899 9.478 62.5694 8.22173 62.5388 7.26705C62.5234 6.78945 62.5056 6.38913 62.4866 6.09416C62.4771 5.9464 62.4675 5.82755 62.4581 5.73973C62.45 5.66512 62.4436 5.62872 62.4415 5.61724C62.4415 5.61695 62.4414 5.61668 62.4414 5.61642C62.3962 5.51322 62.2992 5.3914 62.143 5.26539C61.9828 5.13615 61.7769 5.01604 61.5477 4.91869C61.0801 4.72009 60.5717 4.63892 60.2167 4.7166L60.2155 4.71687C59.7028 4.82674 59.3497 5.05013 59.0952 5.41618C58.8319 5.79498 58.6553 6.35366 58.5618 7.1684L58.3977 8.64588L58.3392 9.17258L57.9177 8.85136L55.6204 7.10058C55.62 7.1003 55.6196 7.10001 55.6193 7.09973C51.742 4.19814 46.3382 1.80778 41.4293 0.885254C40.3117 0.68335 38.3631 0.49939 36.4951 0.393494C34.6176 0.287064 32.8688 0.262444 32.1371 0.367004Z" fill="#EECA62" stroke="white" stroke-width="0.6"/>
<path d="M32.86 26.0027L32.8599 26.0033C32.8326 28.2738 32.8326 30.4346 32.8497 32.0853C32.8582 32.9108 32.871 33.6077 32.8868 34.1264C32.9029 34.6583 32.9217 34.9756 32.9375 35.0653L32.9377 35.0664C32.9459 35.1136 32.9934 35.2397 33.1072 35.4588C33.2147 35.6656 33.3651 35.9257 33.5499 36.2261C33.9191 36.8265 34.4177 37.5751 34.9649 38.3578C36.0606 39.9248 37.3371 41.6082 38.1451 42.4978C39.4182 43.8399 41.6217 42.9649 41.6217 41.1685C41.6217 40.9038 41.5285 40.5752 41.2068 40.0179C40.8851 39.4606 40.3548 38.7071 39.5201 37.5985C39.5199 37.5983 39.5197 37.598 39.5196 37.5978L37.3307 34.7242L37.271 34.6458L37.2694 34.5473L37.1325 26.1415L36.9975 17.8775L36.4205 17.2522C36.4201 17.2518 36.4197 17.2514 36.4193 17.2509C35.6074 16.3923 34.3303 16.3923 33.5184 17.2509C33.518 17.2514 33.5176 17.2518 33.5172 17.2522L32.9409 17.8766L32.86 26.0027Z" fill="#EECA62" stroke="white" stroke-width="0.6"/>
</svg>
