<svg width="12" height="9" viewBox="0 0 12 9" fill="none" xmlns="http://www.w3.org/2000/svg"><path d="M11.7861 1.24419L10.7287 0.209302C10.5861 0.0697674 10.4079 0 10.2059 0C10.004 0 9.82574 0.0697674 9.68317 0.209302L4.59802 5.18605L2.32871 2.95349C2.18614 2.81395 2.00792 2.74419 1.80594 2.74419C1.60396 2.74419 1.42574 2.81395 1.28317 2.95349L0.225743 3.98837C0.0712871 4.12791 0 4.30233 0 4.5C0 4.69767 0.0712871 4.87209 0.213861 5.01163L3.01782 7.75581L4.07525 8.7907C4.21782 8.93023 4.39604 9 4.59802 9C4.8 9 4.97822 8.93023 5.12079 8.7907L6.17822 7.75581L11.7861 2.26744C11.9287 2.12791 12 1.95349 12 1.75581C12 1.55814 11.9287 1.38372 11.7861 1.24419Z" fill="#fff"/></svg>