<svg width="15" height="15" viewBox="0 0 15 15" fill="none" xmlns="http://www.w3.org/2000/svg"><path d="M14.5191 12.1742L9.839 7.49792L14.5191 2.82162C15.1603 2.17977 15.1603 1.12948 14.5191 0.487636C13.8695 -0.162545 12.8286 -0.162545 12.179 0.487636L7.50729 5.16393L2.8272 0.487636C2.17765 -0.154209 1.13671 -0.162545 0.487162 0.487636C-0.15406 1.13782 -0.15406 2.17977 0.487162 2.82162L5.16724 7.49792L0.487162 12.1742C-0.162387 12.8161 -0.162387 13.8664 0.487162 14.5082C0.811936 14.8333 1.23664 14.9917 1.65302 14.9917C2.0694 14.9917 2.50243 14.8333 2.81888 14.5082L7.50729 9.84023L12.1874 14.5165C12.5121 14.8416 12.9285 15 13.3532 15C13.7779 15 14.2026 14.8416 14.5191 14.5165C15.1603 13.8664 15.1603 12.8161 14.5191 12.1742Z" fill="#fff"/></svg>