<svg width="44" height="44" viewBox="0 0 44 44" fill="none" xmlns="http://www.w3.org/2000/svg">
<circle cx="22" cy="22" r="22" fill="#454545"/>
<path fill-rule="evenodd" clip-rule="evenodd" d="M20.4928 12.0788C18.2642 12.4493 16.411 13.4066 14.831 15.0039C12.0577 17.8072 11.2382 21.9651 12.7456 25.5843C12.898 25.9501 13.0606 26.3421 13.107 26.4554C13.1765 26.6252 13.0878 27.1316 12.6031 29.3308C12.2795 30.7989 12.0176 32.0001 12.0211 32C12.0245 32 13.2528 31.7215 14.7506 31.381L17.4737 30.7621L18.1192 31.0339C20.5462 32.0556 23.3065 32.075 25.7747 31.0875C28.4301 30.0252 30.6119 27.7267 31.5023 25.054C31.9009 23.8573 32 23.2307 32 21.9069C32 20.1798 31.6686 18.8069 30.9007 17.353C29.5227 14.7438 27.0542 12.8617 24.1376 12.1964C23.2603 11.9963 21.3584 11.9349 20.4928 12.0788ZM24.0809 13.8C26.5114 14.4235 28.5217 16.0686 29.6237 18.3358C30.7461 20.645 30.7485 23.1183 29.6306 25.4669C28.3674 28.1208 25.8677 29.8682 22.8496 30.2072C21.3936 30.3707 19.7896 30.088 18.3483 29.4138L17.6921 29.1069L15.932 29.5048C14.964 29.7236 14.1556 29.8864 14.1357 29.8665C14.1158 29.8467 14.271 29.0504 14.4805 28.097L14.8615 26.3636L14.4433 25.5241C14.2098 25.0554 13.9325 24.3388 13.8158 23.9021C13.6297 23.2068 13.6066 22.9804 13.6083 21.8678C13.6099 20.771 13.6354 20.5212 13.8142 19.851C14.691 16.5633 17.3954 14.1542 20.8128 13.6162C21.6224 13.4888 23.2175 13.5785 24.0809 13.8ZM18.2344 17.8331C17.3943 18.6061 17.2123 19.8026 17.7502 21.0165C18.2247 22.0875 19.6867 23.848 20.7538 24.6335C21.8689 25.4542 23.5059 26.0768 24.5687 26.0844C25.1366 26.0885 25.2423 26.0638 25.6897 25.8235C26.4563 25.4117 26.7228 24.9912 26.7238 24.1917L26.7242 23.8553L25.6857 23.3506C25.1145 23.073 24.5719 22.8459 24.4801 22.8459C24.3778 22.8458 24.2287 22.9597 24.0958 23.1392C23.7277 23.6365 23.3288 24.0195 23.1789 24.0195C22.761 24.0195 21.3156 23.0907 20.7415 22.4531C20.371 22.0419 19.7481 21.1569 19.7481 21.0419C19.7481 21.0063 19.9245 20.776 20.14 20.5301C20.3956 20.2385 20.532 20.0121 20.532 19.879C20.532 19.6315 19.8096 17.8793 19.6224 17.6729C19.5203 17.5603 19.3798 17.5254 19.0288 17.5254C18.6025 17.5254 18.5445 17.5479 18.2344 17.8331Z" fill="white"/>
</svg>
