<svg width="44" height="44" viewBox="0 0 44 44" fill="none" xmlns="http://www.w3.org/2000/svg">
<circle cx="22" cy="22" r="22" fill="#454545"/>
<path d="M19.1279 17.0509C18.6067 17.1323 18.2809 17.2789 18.0529 17.5233C17.8737 17.7269 17.9226 17.8327 18.2321 17.8898C18.623 17.9712 18.9488 18.3051 19.0628 18.7368C19.3071 19.6978 19.2338 21.8397 18.9325 22.4668C18.8185 22.7111 18.7614 22.7519 18.5253 22.7519C18.3135 22.7519 18.1588 22.6704 17.8819 22.4179C17.3851 21.9619 16.9371 21.2207 16.0168 19.3231C15.4223 18.1015 15.1861 17.7024 15.0151 17.6129C14.8441 17.5233 14.445 17.507 13.0442 17.5233C11.171 17.5558 11 17.5884 11 17.9631C11 18.2074 12.0099 20.3575 12.7754 21.7175C13.9075 23.7699 15.4223 25.8955 16.3345 26.7262C16.8068 27.1579 17.8737 27.899 18.4683 28.1922C18.6556 28.2899 19.1279 28.461 19.5107 28.575C20.1297 28.7542 20.374 28.7786 21.4735 28.7786C22.6544 28.7786 22.7277 28.7704 22.9394 28.5913C23.1267 28.4284 23.1593 28.3225 23.2163 27.7117C23.2896 26.9136 23.3874 26.6204 23.6887 26.3109C24.1122 25.863 24.5113 26.0747 25.6352 27.3371C26.3437 28.1433 26.8487 28.5505 27.378 28.746C27.6875 28.86 27.997 28.8682 29.52 28.8193C31.4013 28.7623 31.7026 28.7053 31.8085 28.3714C31.9714 27.8501 31.4257 27.0439 29.8132 25.3987C28.3798 23.9409 28.3065 23.8025 28.5834 23.2487C28.6811 23.0695 29.1616 22.3772 29.6666 21.7175C30.7986 20.219 31.4176 19.2661 31.6619 18.6879C31.9062 18.0852 31.9062 17.8246 31.6456 17.6536C31.4664 17.5396 31.1651 17.5233 29.3489 17.5314C27.6061 17.5477 27.2314 17.5721 27.1174 17.6699C27.0441 17.735 26.7998 18.2074 26.588 18.7042C25.9365 20.2027 24.7637 22.0515 24.1611 22.5238C23.8272 22.7926 23.6235 22.8089 23.4281 22.5971C23.2082 22.3528 23.1593 21.7583 23.1919 19.7304C23.2408 17.0102 23.2733 17.0509 20.936 17.002C20.1948 16.9939 19.3804 17.0102 19.1279 17.0509Z" fill="white"/>
</svg>
