<svg width="79" height="78" viewBox="0 0 79 78" fill="none" xmlns="http://www.w3.org/2000/svg">
<rect y="8" width="70" height="70" rx="5" fill="#27A6E6"/>
<path fill-rule="evenodd" clip-rule="evenodd" d="M48.1946 30.1137C47.8754 30.2067 43.0007 32.1296 37.3619 34.3865C31.7231 36.6436 25.1075 39.2892 22.6605 40.2654C17.6359 42.2698 17.8198 42.1877 17.3409 42.6425C16.9379 43.0253 16.9016 43.302 17.1824 43.8547C17.451 44.3836 17.8247 44.5495 21.8867 45.9428L25.4331 47.1592L34.683 41.1758C39.7706 37.8848 44.1137 35.0971 44.3345 34.9809C44.8283 34.7209 45.1319 34.8166 45.0763 35.2147C45.0484 35.4142 42.596 37.7473 37.5565 42.3686C33.4433 46.1404 30.0647 49.2723 30.0486 49.3284C30.022 49.4207 41.142 58.1552 42.0259 58.7364C42.6057 59.1176 43.5541 59.0807 44.1015 58.6555C44.3459 58.4658 44.6106 58.1443 44.6898 57.9413C44.8357 57.5668 50 31.1884 50 30.8173C50 30.4912 49.5791 30.0874 49.1618 30.0134C48.949 29.9756 48.5137 30.0207 48.1946 30.1137Z" fill="white"/>
<circle cx="68" cy="11" r="9" fill="#25D366" stroke="white" stroke-width="4"/>
</svg>
