<svg width="42" height="42" viewBox="0 0 42 42" fill="none" xmlns="http://www.w3.org/2000/svg">
<circle cx="21" cy="21" r="21" fill="#F4F4F4"/>
<path fill-rule="evenodd" clip-rule="evenodd" d="M19.5613 11.5303C17.4341 11.8839 15.6651 12.7978 14.1569 14.3224C11.5097 16.9984 10.7274 20.9672 12.1663 24.4219C12.3117 24.771 12.467 25.1452 12.5113 25.2534C12.5776 25.4155 12.4929 25.8989 12.0303 27.9981C11.7214 29.3995 11.4713 30.5461 11.4747 30.546C11.478 30.546 12.6504 30.2801 14.0801 29.9552L16.6795 29.3644L17.2956 29.6238C19.6123 30.5991 22.2472 30.6175 24.6032 29.6749C27.1379 28.6609 29.2205 26.4669 30.0704 23.9158C30.4509 22.7734 30.5455 22.1753 30.5455 20.9117C30.5455 19.263 30.2292 17.9525 29.4962 16.5647C28.1808 14.0741 25.8245 12.2776 23.0405 11.6425C22.2031 11.4515 20.3876 11.3929 19.5613 11.5303ZM22.9864 13.1733C25.3063 13.7685 27.2253 15.3388 28.2772 17.5029C29.3486 19.7071 29.3509 22.068 28.2838 24.3099C27.078 26.8431 24.6919 28.511 21.811 28.8347C20.4212 28.9907 18.8901 28.7209 17.5143 28.0773L16.888 27.7844L15.2079 28.1642C14.2839 28.3731 13.5122 28.5284 13.4932 28.5095C13.4742 28.4906 13.6224 27.7304 13.8224 26.8204L14.1861 25.1658L13.7868 24.3645C13.5639 23.9171 13.2993 23.2331 13.1878 22.8162C13.0103 22.1524 12.9882 21.9364 12.9898 20.8744C12.9913 19.8274 13.0156 19.589 13.1863 18.9492C14.0233 15.8109 16.6047 13.5113 19.8668 12.9979C20.6396 12.8762 22.1622 12.9619 22.9864 13.1733ZM17.4056 17.0231C16.6037 17.7609 16.43 18.903 16.9434 20.0618C17.3963 21.0841 18.7919 22.7646 19.8105 23.5143C20.8749 24.2977 22.4375 24.892 23.452 24.8993C23.9941 24.9032 24.095 24.8796 24.522 24.6503C25.2538 24.2571 25.5081 23.8558 25.5091 23.0926L25.5096 22.7715L24.5182 22.2898C23.973 22.0248 23.4551 21.808 23.3674 21.808C23.2698 21.8079 23.1274 21.9166 23.0006 22.088C22.6492 22.5627 22.2685 22.9282 22.1253 22.9282C21.7265 22.9282 20.3468 22.0416 19.7987 21.4331C19.4451 21.0405 18.8505 20.1958 18.8505 20.086C18.8505 20.052 19.0189 19.8321 19.2246 19.5975C19.4686 19.3191 19.5987 19.103 19.5987 18.9759C19.5987 18.7397 18.9092 17.0671 18.7305 16.8701C18.6331 16.7626 18.4989 16.7293 18.1639 16.7293C17.7569 16.7293 17.7016 16.7508 17.4056 17.0231Z" fill="#25D366"/>
</svg>
