<svg width="282" height="80" viewBox="0 0 282 80" fill="none" xmlns="http://www.w3.org/2000/svg">
<rect opacity="0.1" x="0.5" y="0.5" width="281" height="79" rx="4.5" stroke="white"/>
<path opacity="0.5" d="M20.91 53L23.57 48.786C22.8513 48.618 22.296 48.2773 21.904 47.764C21.5213 47.2507 21.33 46.6393 21.33 45.93C21.33 45.398 21.4607 44.9173 21.722 44.488C21.9927 44.0493 22.3707 43.704 22.856 43.452C23.3413 43.1907 23.92 43.06 24.592 43.06H27.672V53H26.706V48.912H24.928C24.872 48.912 24.8113 48.912 24.746 48.912C24.69 48.912 24.634 48.912 24.578 48.912L22.03 53H20.91ZM24.634 48.058H26.706V43.914H24.69C24.2327 43.914 23.822 43.998 23.458 44.166C23.094 44.334 22.814 44.5673 22.618 44.866C22.422 45.1647 22.324 45.5193 22.324 45.93C22.324 46.3407 22.4127 46.7047 22.59 47.022C22.7673 47.3393 23.024 47.5913 23.36 47.778C23.7053 47.9647 24.13 48.058 24.634 48.058ZM29.9501 53V45.706H30.9021V48.842H35.0741V45.706H36.0261V53H35.0741V49.696H30.9021V53H29.9501ZM37.3142 54.694V52.146H37.4402C37.6548 52.146 37.8508 52.0807 38.0282 51.95C38.2055 51.8193 38.3642 51.5907 38.5042 51.264C38.6442 50.9373 38.7562 50.4893 38.8402 49.92C38.9242 49.3413 38.9802 48.6133 39.0082 47.736L39.0782 45.706H43.8242V52.146H44.8042V54.694H43.9502V53H38.1542V54.694H37.3142ZM38.8822 52.146H42.8722V46.56H39.9322L39.8902 47.82C39.8622 48.688 39.8015 49.416 39.7082 50.004C39.6242 50.5827 39.5122 51.0447 39.3722 51.39C39.2415 51.726 39.0782 51.978 38.8822 52.146ZM49.3973 53.14C48.8746 53.14 48.3893 53.042 47.9413 52.846C47.4933 52.6407 47.1059 52.3653 46.7793 52.02C46.4526 51.6653 46.1959 51.2593 46.0093 50.802C45.8319 50.3447 45.7433 49.8547 45.7433 49.332C45.7433 48.6507 45.8973 48.0253 46.2053 47.456C46.5226 46.8867 46.9566 46.434 47.5073 46.098C48.0579 45.7527 48.6833 45.58 49.3833 45.58C50.1019 45.58 50.7273 45.7527 51.2593 46.098C51.8006 46.4433 52.2253 46.9007 52.5333 47.47C52.8413 48.03 52.9953 48.646 52.9953 49.318C52.9953 49.3927 52.9953 49.4673 52.9953 49.542C52.9953 49.6073 52.9906 49.6587 52.9813 49.696H46.7373C46.7839 50.2187 46.9286 50.6853 47.1713 51.096C47.4233 51.4973 47.7453 51.8193 48.1373 52.062C48.5386 52.2953 48.9726 52.412 49.4393 52.412C49.9153 52.412 50.3633 52.2907 50.7833 52.048C51.2126 51.8053 51.5113 51.488 51.6793 51.096L52.5053 51.32C52.3559 51.6653 52.1273 51.978 51.8193 52.258C51.5113 52.538 51.1473 52.7573 50.7273 52.916C50.3166 53.0653 49.8733 53.14 49.3973 53.14ZM46.7093 49.01H52.0993C52.0619 48.478 51.9173 48.0113 51.6653 47.61C51.4226 47.2087 51.1006 46.896 50.6993 46.672C50.3073 46.4387 49.8733 46.322 49.3973 46.322C48.9213 46.322 48.4873 46.4387 48.0953 46.672C47.7033 46.896 47.3813 47.2133 47.1293 47.624C46.8866 48.0253 46.7466 48.4873 46.7093 49.01ZM54.4501 53V45.706H55.4021V48.828H56.4941L58.9441 45.706H60.0361L57.2501 49.248L60.3861 53H59.2661L56.4941 49.71H55.4021V53H54.4501ZM64.5187 53.14C63.9867 53.14 63.4967 53.042 63.0487 52.846C62.61 52.6407 62.2227 52.3607 61.8867 52.006C61.56 51.6513 61.3034 51.2453 61.1167 50.788C60.9394 50.3307 60.8507 49.8453 60.8507 49.332C60.8507 48.6413 61.0047 48.0113 61.3127 47.442C61.6207 46.8727 62.05 46.42 62.6007 46.084C63.1514 45.748 63.786 45.58 64.5047 45.58C65.186 45.58 65.788 45.7387 66.3107 46.056C66.8334 46.364 67.2207 46.784 67.4727 47.316L66.5487 47.61C66.3434 47.2367 66.054 46.9473 65.6807 46.742C65.3167 46.5273 64.9107 46.42 64.4627 46.42C63.9774 46.42 63.534 46.546 63.1327 46.798C62.7314 47.05 62.4094 47.3953 62.1667 47.834C61.9334 48.2727 61.8167 48.772 61.8167 49.332C61.8167 49.8827 61.938 50.382 62.1807 50.83C62.4234 51.278 62.7454 51.6373 63.1467 51.908C63.548 52.1693 63.9914 52.3 64.4767 52.3C64.794 52.3 65.0974 52.244 65.3867 52.132C65.6854 52.02 65.942 51.8707 66.1567 51.684C66.3807 51.488 66.53 51.278 66.6047 51.054L67.5427 51.334C67.412 51.6793 67.1927 51.992 66.8847 52.272C66.586 52.5427 66.2314 52.7573 65.8207 52.916C65.4194 53.0653 64.9854 53.14 64.5187 53.14ZM72.8026 53V43.06H73.7826V47.484H75.2806L78.6966 43.06H79.8306L76.0926 47.876L80.0686 53H78.8646L75.3086 48.38H73.7826V53H72.8026ZM80.8917 50.9C80.8917 50.4427 81.0224 50.0507 81.2837 49.724C81.545 49.388 81.9044 49.1313 82.3617 48.954C82.8284 48.7673 83.365 48.674 83.9717 48.674C84.3264 48.674 84.695 48.702 85.0777 48.758C85.4604 48.814 85.801 48.898 86.0997 49.01V48.394C86.0997 47.778 85.9177 47.288 85.5537 46.924C85.1897 46.56 84.6857 46.378 84.0417 46.378C83.6497 46.378 83.2624 46.4527 82.8797 46.602C82.5064 46.742 82.1144 46.952 81.7037 47.232L81.3397 46.56C81.8157 46.2333 82.2824 45.9907 82.7397 45.832C83.197 45.664 83.6637 45.58 84.1397 45.58C85.0357 45.58 85.745 45.8367 86.2677 46.35C86.7904 46.8633 87.0517 47.5727 87.0517 48.478V51.852C87.0517 51.9827 87.0797 52.0807 87.1357 52.146C87.1917 52.202 87.2804 52.2347 87.4017 52.244V53C87.299 53.0093 87.2104 53.0187 87.1357 53.028C87.061 53.0373 87.005 53.0373 86.9677 53.028C86.7344 53.0187 86.557 52.944 86.4357 52.804C86.3144 52.664 86.249 52.5147 86.2397 52.356L86.2257 51.824C85.899 52.244 85.4744 52.5707 84.9517 52.804C84.429 53.028 83.897 53.14 83.3557 53.14C82.889 53.14 82.4644 53.042 82.0817 52.846C81.7084 52.6407 81.4144 52.37 81.1997 52.034C80.9944 51.6887 80.8917 51.3107 80.8917 50.9ZM85.7777 51.46C85.8804 51.3293 85.9597 51.2033 86.0157 51.082C86.0717 50.9607 86.0997 50.8533 86.0997 50.76V49.696C85.7824 49.5747 85.451 49.4813 85.1057 49.416C84.7697 49.3507 84.429 49.318 84.0837 49.318C83.4024 49.318 82.8517 49.4533 82.4317 49.724C82.0117 49.9947 81.8017 50.3633 81.8017 50.83C81.8017 51.1007 81.8717 51.3573 82.0117 51.6C82.1517 51.8333 82.357 52.0293 82.6277 52.188C82.8984 52.3373 83.2157 52.412 83.5797 52.412C84.037 52.412 84.4617 52.3233 84.8537 52.146C85.255 51.9687 85.563 51.74 85.7777 51.46ZM92.8326 53.14C92.2259 53.14 91.6799 52.9813 91.1946 52.664C90.7186 52.3467 90.3406 51.9547 90.0606 51.488V55.982H89.1086V45.706H89.9626V47.12C90.2519 46.6627 90.6393 46.294 91.1246 46.014C91.6099 45.7247 92.1279 45.58 92.6786 45.58C93.1826 45.58 93.6446 45.6873 94.0646 45.902C94.4846 46.1073 94.8486 46.3873 95.1566 46.742C95.4646 47.0967 95.7026 47.5027 95.8706 47.96C96.0479 48.408 96.1366 48.8747 96.1366 49.36C96.1366 50.0413 95.9966 50.6713 95.7166 51.25C95.4459 51.8193 95.0633 52.2767 94.5686 52.622C94.0739 52.9673 93.4953 53.14 92.8326 53.14ZM92.5666 52.3C92.9679 52.3 93.3273 52.2207 93.6446 52.062C93.9619 51.894 94.2326 51.67 94.4566 51.39C94.6899 51.11 94.8673 50.7973 94.9886 50.452C95.1099 50.0973 95.1706 49.7333 95.1706 49.36C95.1706 48.968 95.1006 48.5947 94.9606 48.24C94.8299 47.8853 94.6386 47.5727 94.3866 47.302C94.1346 47.0313 93.8453 46.8167 93.5186 46.658C93.1919 46.4993 92.8373 46.42 92.4546 46.42C92.2119 46.42 91.9599 46.4667 91.6986 46.56C91.4373 46.6533 91.1853 46.7887 90.9426 46.966C90.7093 47.134 90.5133 47.3253 90.3546 47.54C90.1959 47.7547 90.0979 47.9833 90.0606 48.226V50.466C90.2099 50.8113 90.4106 51.124 90.6626 51.404C90.9146 51.6747 91.2039 51.894 91.5306 52.062C91.8666 52.2207 92.2119 52.3 92.5666 52.3ZM99.5692 53V46.56H96.9652V45.706H103.125V46.56H100.521V53H99.5692ZM104.407 53V45.706H105.359V48.282H107.011C107.842 48.282 108.467 48.4967 108.887 48.926C109.316 49.346 109.531 49.9013 109.531 50.592C109.531 51.04 109.438 51.446 109.251 51.81C109.064 52.174 108.789 52.4633 108.425 52.678C108.07 52.8927 107.622 53 107.081 53H104.407ZM105.359 52.244H106.955C107.338 52.244 107.646 52.1693 107.879 52.02C108.112 51.8613 108.285 51.6607 108.397 51.418C108.509 51.166 108.565 50.8953 108.565 50.606C108.565 50.326 108.514 50.0693 108.411 49.836C108.318 49.5933 108.15 49.402 107.907 49.262C107.674 49.1127 107.347 49.038 106.927 49.038H105.359V52.244ZM110.861 53V45.72H111.813V53H110.861Z" fill="white"/>
<path opacity="0.5" d="M192.616 53C192.616 52.6827 192.644 52.3653 192.7 52.048C192.756 51.7213 192.863 51.3993 193.022 51.082C193.181 50.7647 193.414 50.4613 193.722 50.172C194.03 49.8733 194.436 49.5933 194.94 49.332C195.211 49.192 195.491 49.0567 195.78 48.926C196.069 48.786 196.34 48.6367 196.592 48.478C196.853 48.31 197.059 48.1233 197.208 47.918C197.367 47.7033 197.446 47.4513 197.446 47.162C197.446 46.9287 197.376 46.7 197.236 46.476C197.105 46.252 196.9 46.07 196.62 45.93C196.349 45.79 196.009 45.72 195.598 45.72C195.299 45.72 195.029 45.762 194.786 45.846C194.543 45.93 194.329 46.0373 194.142 46.168C193.955 46.2893 193.797 46.4153 193.666 46.546C193.535 46.6673 193.428 46.77 193.344 46.854L192.742 46.196C192.789 46.14 192.891 46.042 193.05 45.902C193.218 45.7527 193.428 45.5987 193.68 45.44C193.941 45.2813 194.245 45.146 194.59 45.034C194.945 44.922 195.332 44.866 195.752 44.866C196.321 44.866 196.807 44.9687 197.208 45.174C197.619 45.37 197.931 45.636 198.146 45.972C198.361 46.308 198.468 46.672 198.468 47.064C198.468 47.4467 198.384 47.778 198.216 48.058C198.057 48.3287 197.847 48.5667 197.586 48.772C197.334 48.968 197.068 49.1407 196.788 49.29C196.517 49.43 196.27 49.5513 196.046 49.654C195.607 49.8593 195.239 50.0647 194.94 50.27C194.641 50.4753 194.403 50.6853 194.226 50.9C194.049 51.1053 193.909 51.3107 193.806 51.516C193.713 51.712 193.647 51.9173 193.61 52.132H198.622V53H192.616ZM204.103 49.696C204.523 49.7613 204.882 49.9107 205.181 50.144C205.479 50.3773 205.713 50.6713 205.881 51.026C206.049 51.3807 206.133 51.782 206.133 52.23C206.133 52.79 205.997 53.2847 205.727 53.714C205.456 54.1433 205.078 54.4747 204.593 54.708C204.107 54.9413 203.543 55.058 202.899 55.058C202.189 55.058 201.569 54.9133 201.037 54.624C200.505 54.344 200.103 53.952 199.833 53.448L200.491 52.846C200.696 53.2473 200.999 53.5693 201.401 53.812C201.802 54.064 202.301 54.19 202.899 54.19C203.589 54.19 204.135 54.0173 204.537 53.672C204.947 53.336 205.153 52.8507 205.153 52.216C205.153 51.5813 204.938 51.0773 204.509 50.704C204.089 50.3213 203.487 50.13 202.703 50.13H202.353V49.318H202.731C203.449 49.318 204 49.15 204.383 48.814C204.765 48.478 204.957 48.0487 204.957 47.526C204.957 47.1433 204.868 46.826 204.691 46.574C204.513 46.322 204.271 46.1307 203.963 46C203.664 45.8693 203.319 45.804 202.927 45.804C202.395 45.804 201.923 45.9253 201.513 46.168C201.111 46.4013 200.808 46.728 200.603 47.148L199.987 46.56C200.145 46.2333 200.374 45.9487 200.673 45.706C200.971 45.4633 201.321 45.2767 201.723 45.146C202.124 45.006 202.553 44.936 203.011 44.936C203.589 44.936 204.098 45.0433 204.537 45.258C204.975 45.4633 205.321 45.7527 205.573 46.126C205.825 46.4993 205.951 46.938 205.951 47.442C205.951 47.8153 205.876 48.1607 205.727 48.478C205.577 48.7953 205.363 49.0613 205.083 49.276C204.812 49.4907 204.485 49.6307 204.103 49.696ZM210.447 55.086C209.747 55.086 209.113 54.9087 208.543 54.554C207.974 54.2087 207.549 53.7513 207.269 53.182L207.899 52.706C208.161 53.1633 208.515 53.532 208.963 53.812C209.421 54.092 209.92 54.232 210.461 54.232C210.928 54.232 211.343 54.1293 211.707 53.924C212.081 53.7187 212.375 53.434 212.589 53.07C212.813 52.706 212.925 52.286 212.925 51.81C212.925 51.3527 212.818 50.9513 212.603 50.606C212.398 50.2513 212.113 49.976 211.749 49.78C211.395 49.584 210.993 49.486 210.545 49.486C210.116 49.486 209.705 49.584 209.313 49.78C208.921 49.9667 208.604 50.242 208.361 50.606H207.479L208.585 45.006H213.387V45.888H209.299L208.613 49.458C208.856 49.1967 209.155 48.996 209.509 48.856C209.864 48.7067 210.247 48.632 210.657 48.632C211.264 48.632 211.81 48.7673 212.295 49.038C212.79 49.3087 213.182 49.682 213.471 50.158C213.761 50.634 213.905 51.18 213.905 51.796C213.905 52.4493 213.747 53.0233 213.429 53.518C213.121 54.0127 212.706 54.3953 212.183 54.666C211.661 54.946 211.082 55.086 210.447 55.086ZM222.135 53.14C221.612 53.14 221.127 53.042 220.679 52.846C220.24 52.6407 219.857 52.3653 219.531 52.02C219.213 51.6653 218.966 51.264 218.789 50.816C218.611 50.3587 218.523 49.878 218.523 49.374C218.523 48.8513 218.611 48.366 218.789 47.918C218.966 47.4607 219.218 47.0593 219.545 46.714C219.871 46.3593 220.254 46.084 220.693 45.888C221.141 45.6827 221.626 45.58 222.149 45.58C222.671 45.58 223.152 45.6827 223.591 45.888C224.029 46.084 224.412 46.3593 224.739 46.714C225.065 47.0593 225.317 47.4607 225.495 47.918C225.672 48.366 225.761 48.8513 225.761 49.374C225.761 49.878 225.672 50.3587 225.495 50.816C225.317 51.264 225.065 51.6653 224.739 52.02C224.421 52.3653 224.039 52.6407 223.591 52.846C223.152 53.042 222.667 53.14 222.135 53.14ZM219.489 49.388C219.489 49.9293 219.605 50.424 219.839 50.872C220.081 51.3107 220.403 51.6607 220.805 51.922C221.206 52.174 221.649 52.3 222.135 52.3C222.62 52.3 223.063 52.1693 223.465 51.908C223.866 51.6467 224.188 51.292 224.431 50.844C224.673 50.3867 224.795 49.892 224.795 49.36C224.795 48.8187 224.673 48.324 224.431 47.876C224.188 47.428 223.866 47.0733 223.465 46.812C223.063 46.5507 222.62 46.42 222.135 46.42C221.649 46.42 221.206 46.5553 220.805 46.826C220.413 47.0967 220.095 47.456 219.853 47.904C219.61 48.3427 219.489 48.8373 219.489 49.388ZM233.163 54.694V53H227.339V45.706H228.291V52.16H232.071V45.706H233.023V52.16H234.017V54.694H233.163ZM238.61 53.14C238.087 53.14 237.602 53.042 237.154 52.846C236.706 52.6407 236.319 52.3653 235.992 52.02C235.665 51.6653 235.409 51.2593 235.222 50.802C235.045 50.3447 234.956 49.8547 234.956 49.332C234.956 48.6507 235.11 48.0253 235.418 47.456C235.735 46.8867 236.169 46.434 236.72 46.098C237.271 45.7527 237.896 45.58 238.596 45.58C239.315 45.58 239.94 45.7527 240.472 46.098C241.013 46.4433 241.438 46.9007 241.746 47.47C242.054 48.03 242.208 48.646 242.208 49.318C242.208 49.3927 242.208 49.4673 242.208 49.542C242.208 49.6073 242.203 49.6587 242.194 49.696H235.95C235.997 50.2187 236.141 50.6853 236.384 51.096C236.636 51.4973 236.958 51.8193 237.35 52.062C237.751 52.2953 238.185 52.412 238.652 52.412C239.128 52.412 239.576 52.2907 239.996 52.048C240.425 51.8053 240.724 51.488 240.892 51.096L241.718 51.32C241.569 51.6653 241.34 51.978 241.032 52.258C240.724 52.538 240.36 52.7573 239.94 52.916C239.529 53.0653 239.086 53.14 238.61 53.14ZM235.922 49.01H241.312C241.275 48.478 241.13 48.0113 240.878 47.61C240.635 47.2087 240.313 46.896 239.912 46.672C239.52 46.4387 239.086 46.322 238.61 46.322C238.134 46.322 237.7 46.4387 237.308 46.672C236.916 46.896 236.594 47.2133 236.342 47.624C236.099 48.0253 235.959 48.4873 235.922 49.01ZM243.663 53V45.706H244.615V48.842H248.787V45.706H249.739V53H248.787V49.696H244.615V53H243.663ZM254.947 53.14C254.424 53.14 253.939 53.042 253.491 52.846C253.052 52.6407 252.67 52.3653 252.343 52.02C252.026 51.6653 251.778 51.264 251.601 50.816C251.424 50.3587 251.335 49.878 251.335 49.374C251.335 48.8513 251.424 48.366 251.601 47.918C251.778 47.4607 252.03 47.0593 252.357 46.714C252.684 46.3593 253.066 46.084 253.505 45.888C253.953 45.6827 254.438 45.58 254.961 45.58C255.484 45.58 255.964 45.6827 256.403 45.888C256.842 46.084 257.224 46.3593 257.551 46.714C257.878 47.0593 258.13 47.4607 258.307 47.918C258.484 48.366 258.573 48.8513 258.573 49.374C258.573 49.878 258.484 50.3587 258.307 50.816C258.13 51.264 257.878 51.6653 257.551 52.02C257.234 52.3653 256.851 52.6407 256.403 52.846C255.964 53.042 255.479 53.14 254.947 53.14ZM252.301 49.388C252.301 49.9293 252.418 50.424 252.651 50.872C252.894 51.3107 253.216 51.6607 253.617 51.922C254.018 52.174 254.462 52.3 254.947 52.3C255.432 52.3 255.876 52.1693 256.277 51.908C256.678 51.6467 257 51.292 257.243 50.844C257.486 50.3867 257.607 49.892 257.607 49.36C257.607 48.8187 257.486 48.324 257.243 47.876C257 47.428 256.678 47.0733 256.277 46.812C255.876 46.5507 255.432 46.42 254.947 46.42C254.462 46.42 254.018 46.5553 253.617 46.826C253.225 47.0967 252.908 47.456 252.665 47.904C252.422 48.3427 252.301 48.8373 252.301 49.388ZM260.151 53V45.706H261.103V48.828H262.195L264.645 45.706H265.737L262.951 49.248L266.087 53H264.967L262.195 49.71H261.103V53H260.151Z" fill="white"/>
<path d="M197.429 28.0707C197.38 28.106 196.978 28.8632 196.541 29.7466L195.742 31.3569L193.984 31.6144C192.277 31.8668 192.222 31.8769 192.108 32.0081C191.979 32.1596 191.969 32.2656 192.059 32.4221C192.093 32.4826 192.674 33.0833 193.349 33.7598C194.555 34.9562 194.585 34.9864 194.565 35.1631C194.555 35.2641 194.426 36.0617 194.277 36.935C194.109 37.9294 194.024 38.5756 194.044 38.6614C194.084 38.8179 194.238 38.9188 194.426 38.9138C194.496 38.9138 195.25 38.5352 196.104 38.0809L197.658 37.253L199.206 38.0809C200.06 38.5352 200.809 38.9138 200.879 38.9138C201.068 38.9188 201.221 38.8179 201.261 38.6614C201.281 38.5756 201.197 37.9294 201.028 36.935C200.879 36.0617 200.75 35.2641 200.74 35.1631C200.72 34.9864 200.75 34.9562 201.961 33.7497C202.641 33.0733 203.222 32.4675 203.256 32.4069C203.286 32.3413 203.301 32.2353 203.281 32.1697C203.217 31.8971 203.157 31.8819 201.311 31.6144L199.564 31.3569L198.764 29.7466C198.328 28.8632 197.926 28.106 197.876 28.0707C197.826 28.0303 197.722 28 197.653 28C197.583 28 197.479 28.0303 197.429 28.0707Z" fill="#FFCC01"/>
<path d="M226.784 28.0707C226.735 28.106 226.333 28.8632 225.896 29.7466L225.097 31.3569L223.339 31.6144C221.632 31.8668 221.577 31.8769 221.463 32.0081C221.334 32.1596 221.324 32.2656 221.414 32.4221C221.448 32.4826 222.029 33.0833 222.704 33.7598C223.91 34.9562 223.94 34.9864 223.92 35.1631C223.91 35.2641 223.781 36.0617 223.632 36.935C223.464 37.9294 223.379 38.5756 223.399 38.6614C223.439 38.8179 223.593 38.9188 223.781 38.9138C223.851 38.9138 224.605 38.5352 225.459 38.0809L227.013 37.253L228.561 38.0809C229.415 38.5352 230.164 38.9138 230.234 38.9138C230.423 38.9188 230.576 38.8179 230.616 38.6614C230.636 38.5756 230.552 37.9294 230.383 36.935C230.234 36.0617 230.105 35.2641 230.095 35.1631C230.075 34.9864 230.105 34.9562 231.316 33.7497C231.996 33.0733 232.577 32.4675 232.611 32.4069C232.641 32.3413 232.656 32.2353 232.636 32.1697C232.572 31.8971 232.512 31.8819 230.666 31.6144L228.919 31.3569L228.119 29.7466C227.683 28.8632 227.281 28.106 227.231 28.0707C227.181 28.0303 227.077 28 227.008 28C226.938 28 226.834 28.0303 226.784 28.0707Z" fill="#FFCC01"/>
<path d="M212.106 28.0707C212.057 28.106 211.655 28.8632 211.218 29.7466L210.419 31.3569L208.662 31.6144C206.954 31.8668 206.9 31.8769 206.785 32.0081C206.656 32.1596 206.647 32.2656 206.736 32.4221C206.771 32.4826 207.351 33.0833 208.026 33.7598C209.233 34.9562 209.262 34.9864 209.242 35.1631C209.233 35.2641 209.103 36.0617 208.955 36.935C208.786 37.9294 208.701 38.5756 208.721 38.6614C208.761 38.8179 208.915 38.9188 209.103 38.9138C209.173 38.9138 209.927 38.5352 210.781 38.0809L212.335 37.253L213.883 38.0809C214.737 38.5352 215.487 38.9138 215.556 38.9138C215.745 38.9188 215.899 38.8179 215.938 38.6614C215.958 38.5756 215.874 37.9294 215.705 36.935C215.556 36.0617 215.427 35.2641 215.417 35.1631C215.397 34.9864 215.427 34.9562 216.638 33.7497C217.318 33.0733 217.899 32.4675 217.934 32.4069C217.963 32.3413 217.978 32.2353 217.959 32.1697C217.894 31.8971 217.834 31.8819 215.988 31.6144L214.241 31.3569L213.442 29.7466C213.005 28.8632 212.603 28.106 212.553 28.0707C212.504 28.0303 212.399 28 212.33 28C212.26 28 212.156 28.0303 212.106 28.0707Z" fill="#FFCC01"/>
<path d="M241.461 28.0707C241.412 28.106 241.01 28.8632 240.573 29.7466L239.774 31.3569L238.017 31.6144C236.309 31.8668 236.255 31.8769 236.14 32.0081C236.011 32.1596 236.001 32.2656 236.091 32.4221C236.126 32.4826 236.706 33.0833 237.381 33.7598C238.588 34.9562 238.617 34.9864 238.597 35.1631C238.588 35.2641 238.458 36.0617 238.31 36.935C238.141 37.9294 238.056 38.5756 238.076 38.6614C238.116 38.8179 238.27 38.9188 238.458 38.9138C238.528 38.9138 239.282 38.5352 240.136 38.0809L241.69 37.253L243.238 38.0809C244.092 38.5352 244.842 38.9138 244.911 38.9138C245.1 38.9188 245.254 38.8179 245.293 38.6614C245.313 38.5756 245.229 37.9294 245.06 36.935C244.911 36.0617 244.782 35.2641 244.772 35.1631C244.752 34.9864 244.782 34.9562 245.993 33.7497C246.673 33.0733 247.254 32.4675 247.289 32.4069C247.318 32.3413 247.333 32.2353 247.314 32.1697C247.249 31.8971 247.189 31.8819 245.343 31.6144L243.596 31.3569L242.797 29.7466C242.36 28.8632 241.958 28.106 241.908 28.0707C241.859 28.0303 241.754 28 241.685 28C241.615 28 241.511 28.0303 241.461 28.0707Z" fill="#FFCC01"/>
<path d="M256.139 28.0707C256.089 28.106 255.687 28.8632 255.25 29.7466L254.451 31.3569L252.694 31.6144C250.986 31.8668 250.932 31.8769 250.818 32.0081C250.689 32.1596 250.679 32.2656 250.768 32.4221C250.803 32.4826 251.384 33.0833 252.059 33.7598C253.265 34.9562 253.295 34.9864 253.275 35.1631C253.265 35.2641 253.136 36.0617 252.987 36.935C252.818 37.9294 252.734 38.5756 252.754 38.6614C252.793 38.8179 252.947 38.9188 253.136 38.9138C253.205 38.9138 253.96 38.5352 254.813 38.0809L256.367 37.253L257.916 38.0809C258.769 38.5352 259.519 38.9138 259.588 38.9138C259.777 38.9188 259.931 38.8179 259.971 38.6614C259.99 38.5756 259.906 37.9294 259.737 36.935C259.588 36.0617 259.459 35.2641 259.449 35.1631C259.43 34.9864 259.459 34.9562 260.67 33.7497C261.35 33.0733 261.931 32.4675 261.966 32.4069C261.996 32.3413 262.011 32.2353 261.991 32.1697C261.926 31.8971 261.867 31.8819 260.02 31.6144L258.273 31.3569L257.474 29.7466C257.037 28.8632 256.635 28.106 256.585 28.0707C256.536 28.0303 256.432 28 256.362 28C256.293 28 256.188 28.0303 256.139 28.0707Z" fill="#FFCC01"/>
<path d="M30.052 34V25.908L26.454 32.194H25.838L22.226 25.908V34H21.246V24.06H22.254L26.132 30.864L30.038 24.06H31.032V34H30.052ZM36.368 34.14C35.8453 34.14 35.36 34.042 34.912 33.846C34.464 33.6407 34.0766 33.3653 33.75 33.02C33.4233 32.6653 33.1666 32.2593 32.98 31.802C32.8026 31.3447 32.714 30.8547 32.714 30.332C32.714 29.6507 32.868 29.0253 33.176 28.456C33.4933 27.8867 33.9273 27.434 34.478 27.098C35.0286 26.7527 35.654 26.58 36.354 26.58C37.0726 26.58 37.698 26.7527 38.23 27.098C38.7713 27.4433 39.196 27.9007 39.504 28.47C39.812 29.03 39.966 29.646 39.966 30.318C39.966 30.3927 39.966 30.4673 39.966 30.542C39.966 30.6073 39.9613 30.6587 39.952 30.696H33.708C33.7546 31.2187 33.8993 31.6853 34.142 32.096C34.394 32.4973 34.716 32.8193 35.108 33.062C35.5093 33.2953 35.9433 33.412 36.41 33.412C36.886 33.412 37.334 33.2907 37.754 33.048C38.1833 32.8053 38.482 32.488 38.65 32.096L39.476 32.32C39.3266 32.6653 39.098 32.978 38.79 33.258C38.482 33.538 38.118 33.7573 37.698 33.916C37.2873 34.0653 36.844 34.14 36.368 34.14ZM33.68 30.01H39.07C39.0326 29.478 38.888 29.0113 38.636 28.61C38.3933 28.2087 38.0713 27.896 37.67 27.672C37.278 27.4387 36.844 27.322 36.368 27.322C35.892 27.322 35.458 27.4387 35.066 27.672C34.674 27.896 34.352 28.2133 34.1 28.624C33.8573 29.0253 33.7173 29.4873 33.68 30.01ZM44.7808 34.14C43.6048 34.14 42.7134 33.7807 42.1068 33.062C41.5094 32.334 41.2108 31.3307 41.2108 30.052C41.2108 29.1467 41.2854 28.3813 41.4348 27.756C41.5841 27.1307 41.8034 26.6173 42.0928 26.216C42.3821 25.8053 42.7368 25.4693 43.1568 25.208C43.5861 24.9467 44.0761 24.732 44.6268 24.564L47.6928 23.556L47.7768 24.382L44.8228 25.348C44.2628 25.5347 43.7961 25.7727 43.4228 26.062C43.0494 26.3513 42.7554 26.72 42.5408 27.168C42.3354 27.6067 42.2001 28.1807 42.1348 28.89C42.3774 28.3487 42.7508 27.9333 43.2548 27.644C43.7588 27.3453 44.3421 27.196 45.0048 27.196C45.7141 27.196 46.3161 27.3407 46.8108 27.63C47.3148 27.9193 47.6974 28.3207 47.9588 28.834C48.2201 29.3473 48.3508 29.94 48.3508 30.612C48.3508 31.3213 48.2108 31.942 47.9308 32.474C47.6601 32.9967 47.2588 33.4073 46.7268 33.706C46.2041 33.9953 45.5554 34.14 44.7808 34.14ZM44.7808 33.3C45.6114 33.3 46.2508 33.062 46.6988 32.586C47.1561 32.1007 47.3848 31.4567 47.3848 30.654C47.3848 29.87 47.1608 29.2307 46.7128 28.736C46.2741 28.2413 45.6301 27.994 44.7808 27.994C44.2954 27.994 43.8568 28.0967 43.4648 28.302C43.0728 28.5073 42.7601 28.806 42.5268 29.198C42.3028 29.59 42.1908 30.0753 42.1908 30.654C42.1908 31.158 42.2888 31.6107 42.4848 32.012C42.6901 32.4133 42.9841 32.7307 43.3668 32.964C43.7494 33.188 44.2208 33.3 44.7808 33.3ZM53.1023 34.14C52.5797 34.14 52.0943 34.042 51.6463 33.846C51.1983 33.6407 50.811 33.3653 50.4843 33.02C50.1577 32.6653 49.901 32.2593 49.7143 31.802C49.537 31.3447 49.4483 30.8547 49.4483 30.332C49.4483 29.6507 49.6023 29.0253 49.9103 28.456C50.2277 27.8867 50.6617 27.434 51.2123 27.098C51.763 26.7527 52.3883 26.58 53.0883 26.58C53.807 26.58 54.4323 26.7527 54.9643 27.098C55.5057 27.4433 55.9303 27.9007 56.2383 28.47C56.5463 29.03 56.7003 29.646 56.7003 30.318C56.7003 30.3927 56.7003 30.4673 56.7003 30.542C56.7003 30.6073 56.6957 30.6587 56.6863 30.696H50.4423C50.489 31.2187 50.6337 31.6853 50.8763 32.096C51.1283 32.4973 51.4503 32.8193 51.8423 33.062C52.2437 33.2953 52.6777 33.412 53.1443 33.412C53.6203 33.412 54.0683 33.2907 54.4883 33.048C54.9177 32.8053 55.2163 32.488 55.3843 32.096L56.2103 32.32C56.061 32.6653 55.8323 32.978 55.5243 33.258C55.2163 33.538 54.8523 33.7573 54.4323 33.916C54.0217 34.0653 53.5783 34.14 53.1023 34.14ZM50.4143 30.01H55.8043C55.767 29.478 55.6223 29.0113 55.3703 28.61C55.1277 28.2087 54.8057 27.896 54.4043 27.672C54.0123 27.4387 53.5783 27.322 53.1023 27.322C52.6263 27.322 52.1923 27.4387 51.8003 27.672C51.4083 27.896 51.0863 28.2133 50.8343 28.624C50.5917 29.0253 50.4517 29.4873 50.4143 30.01ZM57.4691 34.042V33.174C57.7211 33.174 57.9451 33.1087 58.1411 32.978C58.3371 32.838 58.5098 32.6047 58.6591 32.278C58.8178 31.9513 58.9438 31.5033 59.0371 30.934C59.1305 30.3553 59.1911 29.6227 59.2191 28.736L59.3031 26.706H64.0351V34H63.0831V27.56H60.1431L60.1151 28.82C60.0778 29.828 59.9985 30.6727 59.8771 31.354C59.7558 32.026 59.5831 32.558 59.3591 32.95C59.1445 33.342 58.8785 33.622 58.5611 33.79C58.2438 33.958 57.8798 34.042 57.4691 34.042ZM66.1258 34V26.706H67.0778V29.282H68.9678C69.7985 29.282 70.4238 29.4967 70.8438 29.926C71.2732 30.346 71.4878 30.9013 71.4878 31.592C71.4878 32.04 71.3945 32.446 71.2078 32.81C71.0212 33.174 70.7458 33.4633 70.3818 33.678C70.0272 33.8927 69.5792 34 69.0378 34H66.1258ZM67.0778 33.244H68.9118C69.2945 33.244 69.6025 33.1693 69.8358 33.02C70.0692 32.8613 70.2418 32.6607 70.3538 32.418C70.4658 32.166 70.5218 31.8953 70.5218 31.606C70.5218 31.326 70.4705 31.0693 70.3678 30.836C70.2745 30.5933 70.1065 30.402 69.8638 30.262C69.6305 30.1127 69.3038 30.038 68.8838 30.038H67.0778V33.244ZM76.1258 34.14C75.6031 34.14 75.1178 34.042 74.6698 33.846C74.2218 33.6407 73.8344 33.3653 73.5078 33.02C73.1811 32.6653 72.9244 32.2593 72.7378 31.802C72.5604 31.3447 72.4718 30.8547 72.4718 30.332C72.4718 29.6507 72.6258 29.0253 72.9338 28.456C73.2511 27.8867 73.6851 27.434 74.2358 27.098C74.7864 26.7527 75.4118 26.58 76.1118 26.58C76.8304 26.58 77.4558 26.7527 77.9878 27.098C78.5291 27.4433 78.9538 27.9007 79.2618 28.47C79.5698 29.03 79.7238 29.646 79.7238 30.318C79.7238 30.3927 79.7238 30.4673 79.7238 30.542C79.7238 30.6073 79.7191 30.6587 79.7098 30.696H73.4658C73.5124 31.2187 73.6571 31.6853 73.8998 32.096C74.1518 32.4973 74.4738 32.8193 74.8658 33.062C75.2671 33.2953 75.7011 33.412 76.1678 33.412C76.6438 33.412 77.0918 33.2907 77.5118 33.048C77.9411 32.8053 78.2398 32.488 78.4078 32.096L79.2338 32.32C79.0844 32.6653 78.8558 32.978 78.5478 33.258C78.2398 33.538 77.8758 33.7573 77.4558 33.916C77.0451 34.0653 76.6018 34.14 76.1258 34.14ZM73.4378 30.01H78.8278C78.7904 29.478 78.6458 29.0113 78.3938 28.61C78.1511 28.2087 77.8291 27.896 77.4278 27.672C77.0358 27.4387 76.6018 27.322 76.1258 27.322C75.6498 27.322 75.2158 27.4387 74.8238 27.672C74.4318 27.896 74.1098 28.2133 73.8578 28.624C73.6151 29.0253 73.4751 29.4873 73.4378 30.01ZM84.7469 34V26.706H85.6989V29.828H86.7909L89.2409 26.706H90.3329L87.5469 30.248L90.6829 34H89.5629L86.7909 30.71H85.6989V34H84.7469ZM92.8324 37.052C92.6737 37.052 92.5104 37.024 92.3424 36.968C92.1837 36.9213 92.0204 36.8513 91.8524 36.758L92.2024 36.086C92.305 36.142 92.3984 36.1887 92.4824 36.226C92.5757 36.2633 92.6737 36.282 92.7764 36.282C93.019 36.282 93.2477 36.1607 93.4624 35.918C93.677 35.6753 93.8824 35.3207 94.0784 34.854L94.4424 33.944L91.1944 26.706H92.2024L94.8764 33.02L97.3404 26.706H98.2924L94.8204 35.148C94.6337 35.5867 94.4377 35.946 94.2324 36.226C94.027 36.506 93.8077 36.7113 93.5744 36.842C93.341 36.982 93.0937 37.052 92.8324 37.052ZM99.8463 26.706L101.988 29.562L102.1 29.772L102.212 29.562L104.34 26.706H105.418L102.646 30.374L105.418 34H104.34L102.212 31.158L102.1 30.962L101.988 31.158L99.8603 34H98.7823L101.54 30.374L98.7823 26.706H99.8463ZM106.663 34V26.706H107.615V29.842H111.787V26.706H112.739V34H111.787V30.696H107.615V34H106.663ZM114.825 34V26.72H115.777V32.712L120.215 26.706H121.069V34H120.117V28.106L115.749 34H114.825Z" fill="white"/>
<path d="M147.16 45.48C147.16 47.2133 147 48.6667 146.68 49.84C146.36 51.0133 145.72 52.08 144.76 53.04C143.267 54.5333 141.267 55.28 138.76 55.28C136.173 55.28 134.147 54.5467 132.68 53.08C131.427 51.8267 130.707 50.0133 130.52 47.64H134.6C134.947 50.28 136.333 51.6 138.76 51.6C139.987 51.6 140.973 51.2267 141.72 50.48C142.627 49.5733 143.08 47.9067 143.08 45.48C143.08 41.5067 141.693 39.52 138.92 39.52C136.76 39.52 135.413 40.3733 134.88 42.08H131.16V26.52H146.52V30.16H134.84V37.68C135.88 36.5867 137.453 36.04 139.56 36.04C141.747 36.04 143.453 36.6533 144.68 37.88C146.333 39.5333 147.16 42.0667 147.16 45.48ZM157.088 57.4L152.448 61.2V50.36H157.088V57.4ZM179.107 47.08C179.107 49.56 178.32 51.5467 176.747 53.04C175.173 54.5067 173.213 55.24 170.867 55.24C168.547 55.24 166.6 54.5067 165.027 53.04C163.453 51.5467 162.667 49.56 162.667 47.08V34.44C162.667 31.96 163.453 29.9867 165.027 28.52C166.6 27.0267 168.547 26.28 170.867 26.28C173.213 26.28 175.173 27.0267 176.747 28.52C178.32 29.9867 179.107 31.96 179.107 34.44V47.08ZM175.027 46.96V34.56C175.027 33.1733 174.653 32.0533 173.907 31.2C173.16 30.3467 172.147 29.92 170.867 29.92C169.613 29.92 168.613 30.3467 167.867 31.2C167.12 32.0533 166.747 33.1733 166.747 34.56V46.96C166.747 48.3467 167.12 49.4667 167.867 50.32C168.613 51.1733 169.613 51.6 170.867 51.6C172.147 51.6 173.16 51.1733 173.907 50.32C174.653 49.4667 175.027 48.3467 175.027 46.96Z" fill="white"/>
</svg>
