<svg width="44" height="44" viewBox="0 0 44 44" fill="none" xmlns="http://www.w3.org/2000/svg">
<circle cx="22" cy="22" r="22" fill="#454545"/>
<path fill-rule="evenodd" clip-rule="evenodd" d="M29.9058 14.0706C29.7124 14.1283 26.758 15.3218 23.3406 16.7227C19.9231 18.1236 15.9136 19.7657 14.4306 20.3716C11.3854 21.6157 11.4969 21.5648 11.2066 21.8471C10.9623 22.0847 10.9404 22.2564 11.1105 22.5995C11.2733 22.9278 11.4998 23.0307 13.9616 23.8955L16.111 24.6505L21.717 20.9367C24.8004 18.894 27.4326 17.1637 27.5664 17.0916C27.8656 16.9302 28.0496 16.9896 28.0159 17.2367C27.9991 17.3606 26.5127 18.8087 23.4585 21.677C20.9657 24.0182 18.918 25.9621 18.9082 25.9969C18.8921 26.0542 25.6315 31.4756 26.1672 31.8364C26.5186 32.073 27.0934 32.0501 27.4251 31.7862C27.5733 31.6684 27.7337 31.4689 27.7817 31.3429C27.8701 31.1104 31 14.7376 31 14.5073C31 14.3049 30.7449 14.0543 30.492 14.0083C30.363 13.9848 30.0992 14.0129 29.9058 14.0706Z" fill="white"/>
</svg>
