<svg width="78" height="78" viewBox="0 0 78 78" fill="none" xmlns="http://www.w3.org/2000/svg">
<rect y="8" width="70" height="70" rx="5" fill="#25D366"/>
<path fill-rule="evenodd" clip-rule="evenodd" d="M32.4377 26.134C28.6492 26.7638 25.4987 28.3913 22.8127 31.1065C18.0981 35.8723 16.7049 42.9406 19.2675 49.0933C19.5265 49.7151 19.803 50.3815 19.8819 50.5742C20.0001 50.8629 19.8493 51.7237 19.0252 55.4624C18.4752 57.9582 18.0298 60.0001 18.0358 60C18.0417 60 20.1298 59.5265 22.6759 58.9478L27.3054 57.8956L28.4026 58.3576C32.5286 60.0946 37.221 60.1274 41.417 58.4487C45.9312 56.6428 49.6402 52.7354 51.1538 48.1919C51.8316 46.1573 52 45.0922 52 42.8418C52 39.9056 51.4366 37.5717 50.1313 35.1001C47.7886 30.6644 43.5921 27.4649 38.6339 26.3339C37.1426 25.9936 33.9093 25.8893 32.4377 26.134ZM38.5376 29.0601C42.6693 30.12 46.0868 32.9167 47.9603 36.7709C49.8684 40.6965 49.8725 44.9012 47.9721 48.8938C45.8246 53.4053 41.575 56.3759 36.4443 56.9522C33.9692 57.2302 31.2423 56.7496 28.7921 55.6035L27.6766 55.0817L24.6844 55.7582C23.0388 56.1302 21.6646 56.4069 21.6307 56.3731C21.5969 56.3394 21.8607 54.9856 22.2169 53.3649L22.8646 50.4182L22.1536 48.991C21.7566 48.1943 21.2853 46.976 21.0868 46.2336C20.7706 45.0515 20.7313 44.6667 20.7341 42.7753C20.7369 40.9107 20.7802 40.486 21.0841 39.3467C22.5747 33.7576 27.1721 29.6621 32.9818 28.7476C34.3581 28.5309 37.0697 28.6835 38.5376 29.0601ZM28.5984 35.9163C27.1704 37.2303 26.861 39.2643 27.7754 41.3281C28.5819 43.1488 31.0673 46.1416 32.8814 47.4769C34.7771 48.8721 37.56 49.9306 39.3668 49.9435C40.3322 49.9504 40.512 49.9085 41.2724 49.5C42.5758 48.7999 43.0287 48.0851 43.0304 46.7258L43.0312 46.154L41.2656 45.2961C40.2946 44.8242 39.3723 44.438 39.2161 44.438C39.0423 44.4379 38.7887 44.6314 38.5629 44.9367C37.9371 45.7821 37.259 46.4331 37.0041 46.4331C36.2937 46.4331 33.8366 44.8541 32.8605 43.7703C32.2308 43.0712 31.1718 41.5668 31.1718 41.3712C31.1718 41.3107 31.4716 40.9191 31.8381 40.5012C32.2726 40.0055 32.5043 39.6205 32.5043 39.3943C32.5043 38.9736 31.2763 35.9948 30.9581 35.6439C30.7846 35.4525 30.5457 35.3932 29.949 35.3932C29.2242 35.3932 29.1256 35.4314 28.5984 35.9163Z" fill="white"/>
<circle cx="67" cy="11" r="9" fill="#25D366" stroke="white" stroke-width="4"/>
</svg>
