<svg width="42" height="42" viewBox="0 0 42 42" fill="none" xmlns="http://www.w3.org/2000/svg">
<circle cx="21" cy="21" r="21" fill="#F4F4F4"/>
<path fill-rule="evenodd" clip-rule="evenodd" d="M28.5464 13.4269C28.3618 13.4789 25.5417 14.5549 22.2796 15.8178C19.0175 17.0808 15.1903 18.5611 13.7747 19.1074C10.8679 20.229 10.9743 20.1831 10.6972 20.4375C10.4641 20.6517 10.4431 20.8065 10.6055 21.1158C10.7609 21.4118 10.9771 21.5046 13.327 22.2842L15.3787 22.9649L20.7299 19.6168C23.6731 17.7753 26.1856 16.2154 26.3134 16.1504C26.599 16.0049 26.7746 16.0585 26.7425 16.2813C26.7264 16.3929 25.3076 17.6984 22.3922 20.2842C20.0127 22.3948 18.0581 24.1473 18.0488 24.1787C18.0334 24.2304 24.4664 29.1178 24.9778 29.4431C25.3132 29.6564 25.8619 29.6357 26.1786 29.3978C26.3199 29.2916 26.4731 29.1117 26.5189 28.9981C26.6033 28.7886 29.5909 14.0283 29.5909 13.8206C29.5909 13.6382 29.3474 13.4122 29.106 13.3708C28.9829 13.3496 28.7311 13.3749 28.5464 13.4269Z" fill="#27A5E5"/>
</svg>
