<svg width="20" height="20" viewBox="0 0 20 20" fill="none" xmlns="http://www.w3.org/2000/svg">
<path d="M19 12C18.4 12 18 12.4 18 13V17C18 17.6 17.6 18 17 18H3C2.4 18 2 17.6 2 17V13C2 12.4 1.6 12 1 12C0.4 12 0 12.4 0 13V17C0 18.7 1.3 20 3 20H17C18.7 20 20 18.7 20 17V13C20 12.4 19.6 12 19 12Z" fill="white"/>
<path d="M9.3 13.7C9.4 13.8 9.5 13.9 9.6 13.9C9.7 14 9.9 14 10 14C10.1 14 10.3 14 10.4 13.9C10.5 13.8 10.6 13.8 10.7 13.7L15.7 8.7C16.1 8.3 16.1 7.7 15.7 7.3C15.3 6.9 14.7 6.9 14.3 7.3L11 10.6V1C11 0.4 10.6 0 10 0C9.4 0 9 0.4 9 1V10.6L5.7 7.3C5.3 6.9 4.7 6.9 4.3 7.3C3.9 7.7 3.9 8.3 4.3 8.7L9.3 13.7Z" fill="white"/>
</svg>
