<svg width="202" height="80" viewBox="0 0 202 80" fill="none" xmlns="http://www.w3.org/2000/svg">
<path d="M44.32 51.04V55H63.8V26.6H44.68V30.56H59.32V38.64H46.64V42.36H59.32V51.04H44.32Z" fill="#FFCC01"/>
<path d="M182.88 39.4C184.507 39.4 185.987 39.12 187.32 38.56C188.627 37.9733 189.76 37.1867 190.72 36.2C191.68 35.1867 192.427 34.04 192.96 32.76C193.467 31.4533 193.72 30.0667 193.72 28.6C193.72 26.6267 193.267 24.8267 192.36 23.2C191.453 21.5467 190.187 20.2267 188.56 19.24C186.933 18.2267 185.027 17.72 182.84 17.72C180.653 17.72 178.773 18.2267 177.2 19.24C175.6 20.2267 174.36 21.5333 173.48 23.16C172.6 24.7867 172.16 26.5333 172.16 28.4C172.16 28.72 172.173 29.0267 172.2 29.32C172.227 29.5867 172.253 29.8133 172.28 30H189.04C188.96 31.2267 188.627 32.3067 188.04 33.24C187.427 34.1467 186.653 34.8667 185.72 35.4C184.787 35.9067 183.787 36.16 182.72 36.16C181.547 36.16 180.44 35.8667 179.4 35.28C178.333 34.6933 177.613 33.92 177.24 32.96L173.48 34.04C173.933 35.0533 174.627 35.9733 175.56 36.8C176.467 37.6 177.547 38.24 178.8 38.72C180.053 39.1733 181.413 39.4 182.88 39.4ZM189.16 27.08H176.52C176.6 25.88 176.947 24.8267 177.56 23.92C178.147 22.9867 178.907 22.2667 179.84 21.76C180.747 21.2267 181.76 20.96 182.88 20.96C183.973 20.96 184.987 21.2267 185.92 21.76C186.827 22.2667 187.573 22.9867 188.16 23.92C188.747 24.8267 189.08 25.88 189.16 27.08Z" fill="#FFCC01"/>
<path d="M31.08 56V35.76L22.72 51.12H20.08L11.68 35.76V56H7.2V27.6H12L21.4 44.96L30.8 27.6H35.6V56H31.08ZM71.6931 56V27.6H91.6531V31.52H76.1731V39.48H84.4931C87.6398 39.48 89.9998 40.2267 91.5731 41.72C93.1465 43.1867 93.9331 45.1333 93.9331 47.56C93.9331 49.1867 93.5865 50.64 92.8931 51.92C92.2265 53.1733 91.2131 54.1733 89.8531 54.92C88.5198 55.64 86.8265 56 84.7731 56H71.6931ZM76.1731 52.08H84.1731C85.3998 52.08 86.3865 51.8533 87.1331 51.4C87.9065 50.9467 88.4531 50.3733 88.7731 49.68C89.1198 48.96 89.2931 48.2133 89.2931 47.44C89.2931 46.6667 89.1465 45.9467 88.8531 45.28C88.5598 44.6133 88.0265 44.08 87.2531 43.68C86.5065 43.2533 85.4531 43.04 84.0931 43.04H76.1731V52.08ZM117.618 52.04V56H98.1375V27.6H117.258V31.56H102.618V39.64H115.298V43.36H102.618V52.04H117.618ZM140.679 56V31.56H131.199L131.039 36.84C130.879 40.6533 130.572 43.8133 130.119 46.32C129.666 48.8 129.012 50.76 128.159 52.2C127.306 53.6133 126.239 54.6267 124.959 55.24C123.679 55.8267 122.146 56.12 120.359 56.12V52.2C121.346 52.2 122.212 51.9733 122.959 51.52C123.706 51.04 124.332 50.2 124.839 49C125.372 47.8 125.786 46.12 126.079 43.96C126.399 41.7733 126.612 38.9867 126.719 35.6L126.999 27.6H145.199V56H140.679ZM151.654 56V27.6H156.134V38.08H162.494C164.574 38.08 166.321 38.4533 167.734 39.2C169.147 39.92 170.227 40.9467 170.974 42.28C171.721 43.6133 172.094 45.1867 172.094 47C172.094 48.7067 171.734 50.2533 171.014 51.64C170.294 53 169.241 54.0667 167.854 54.84C166.467 55.6133 164.774 56 162.774 56H151.654ZM156.134 52.28H162.134C163.387 52.28 164.401 52.04 165.174 51.56C165.974 51.08 166.561 50.44 166.934 49.64C167.307 48.8133 167.494 47.9333 167.494 47C167.494 46.0933 167.321 45.24 166.974 44.44C166.654 43.64 166.094 43 165.294 42.52C164.494 42.04 163.427 41.8 162.094 41.8H156.134V52.28Z" fill="white"/>
<rect x="0.25" y="0.25" width="201.5" height="79.5" rx="4.75" stroke="white" stroke-opacity="0.34" stroke-width="0.5"/>
</svg>
